<?xml version="1.0" standalone="no"?><!DOCTYPE svg PUBLIC "-//W3C//DTD SVG 1.1//EN" "http://www.w3.org/Graphics/SVG/1.1/DTD/svg11.dtd"><svg t="1504143520717" class="icon" style="" viewBox="0 0 1024 1024" version="1.1" xmlns="http://www.w3.org/2000/svg" p-id="1524" xmlns:xlink="http://www.w3.org/1999/xlink" width="36" height="36"><defs><style type="text/css"></style></defs><path d="M176 763.8l39.4-158.2 118.3 118.7L176 763.8z m187.4-69.2L245.1 576l354.7-356L718 338.7 363.4 694.6zM747.7 309L629.4 190.3l88.7-89c16.3-16.4 42.8-16.4 59.1 0l59.1 59.3c16.3 16.4 16.3 42.9 0 59.3L747.7 309zM918 934.9H106c-23.2 0-42-18.9-42-42.2 0-23.3 18.8-42.2 42-42.2h812c23.2 0 42 18.9 42 42.2 0 23.3-18.8 42.2-42 42.2z" p-id="1525" fill="#ffffff"></path></svg>