<?xml version="1.0" standalone="no"?><!DOCTYPE svg PUBLIC "-//W3C//DTD SVG 1.1//EN" "http://www.w3.org/Graphics/SVG/1.1/DTD/svg11.dtd"><svg t="1503976419878" class="icon" style="" viewBox="0 0 1024 1024" version="1.1" xmlns="http://www.w3.org/2000/svg" p-id="1504" xmlns:xlink="http://www.w3.org/1999/xlink" width="36" height="36"><defs><style type="text/css"></style></defs><path d="M512 0C228.072727 0 0 228.072727 0 512s228.072727 512 512 512 512-228.072727 512-512S795.927273 0 512 0z" p-id="1505" class="" fill="#f03b42"></path><path d="M726.109091 726.109091c-13.963636 13.963636-37.236364 13.963636-51.2 0l-162.909091-162.909091-162.909091 162.909091c-13.963636 13.963636-37.236364 13.963636-51.2 0-13.963636-13.963636-13.963636-37.236364 0-51.2l162.909091-162.909091-162.909091-162.909091c-13.963636-13.963636-13.963636-37.236364 0-51.2 13.963636-13.963636 37.236364-13.963636 51.2 0l162.909091 162.909091 162.909091-162.909091c13.963636-13.963636 37.236364-13.963636 51.2 0 13.963636 13.963636 13.963636 37.236364 0 51.2l-162.909091 162.909091 162.909091 162.909091c18.618182 13.963636 18.618182 39.563636 0 51.2z" p-id="1506" class="selected" fill="#ffffff"></path></svg>