<?xml version="1.0" standalone="no"?><!DOCTYPE svg PUBLIC "-//W3C//DTD SVG 1.1//EN" "http://www.w3.org/Graphics/SVG/1.1/DTD/svg11.dtd"><svg t="1503892659497" class="icon" style="" viewBox="0 0 1024 1024" version="1.1" xmlns="http://www.w3.org/2000/svg" p-id="6079" xmlns:xlink="http://www.w3.org/1999/xlink" width="36" height="36"><defs><style type="text/css"></style></defs><path d="M323.789 945.766H183.5c-74.957 0-136.192-61.03-136.192-136.192V230.81c0-74.957 61.03-136.192 136.192-136.192h568.115c74.957 0 136.192 61.03 136.192 136.192v28.057c0 11.879 9.626 21.504 21.504 21.504s21.504-9.625 21.504-21.504V230.81c0-98.919-80.486-179.405-179.405-179.405h-567.91C84.582 51.405 4.096 131.89 4.096 230.81v578.97c0 98.918 80.486 179.404 179.405 179.404h140.493c11.878 0 21.504-9.626 21.504-21.504 0-12.288-9.83-21.914-21.71-21.914z" fill="#f03b42" p-id="6080"></path><path d="M461.005 335.462a12.849 12.849 0 0 0-12.903-12.902H118.58a12.849 12.849 0 0 0-12.902 12.902 12.849 12.849 0 0 0 12.902 12.903h329.523c6.964 0 12.903-5.735 12.903-12.903zM118.58 528.794c-7.169 0-12.903 5.734-12.903 12.902s5.734 12.902 12.902 12.902h273.203c7.168 0 12.903-5.734 12.903-12.902s-5.735-12.902-12.903-12.902H118.58zM1014.989 899.891c-11.469-83.353-48.947-160.153-106.087-216.064-33.382-32.768-72.294-57.139-113.868-72.09C855.45 577.947 896.41 513.23 896.41 439.297c0-108.954-88.679-197.632-197.632-197.632s-197.632 88.678-197.632 197.632c0 73.114 39.936 137.216 99.123 171.418-43.213 14.95-83.354 39.936-117.76 73.932-57.754 56.935-95.437 135.168-106.087 219.956h0.205c-0.205 0.819-0.205 1.843-0.205 2.662 0 11.878 9.626 21.504 21.504 21.504 10.855 0 20.07-8.192 21.3-18.842h0.204c9.421-75.161 42.599-144.384 93.594-194.56 50.79-49.97 115.917-77.619 183.296-77.619 67.174 0 131.891 27.443 182.682 77.005 50.38 49.357 83.558 117.146 93.593 191.283 0.41 11.674 10.035 21.095 21.709 21.095 12.083 0 21.709-9.83 21.709-21.71-0.41-2.047-0.615-3.89-1.024-5.529z m-470.835-460.8c0-85.197 69.222-154.419 154.419-154.419s154.419 69.222 154.419 154.42c0 85.196-69.222 154.418-154.42 154.418s-154.418-69.222-154.418-154.419z" fill="#f03b42" p-id="6081"></path></svg>