<?xml version="1.0" standalone="no"?><!DOCTYPE svg PUBLIC "-//W3C//DTD SVG 1.1//EN" "http://www.w3.org/Graphics/SVG/1.1/DTD/svg11.dtd"><svg t="1503909307478" class="icon" style="" viewBox="0 0 1024 1024" version="1.1" xmlns="http://www.w3.org/2000/svg" p-id="5818" xmlns:xlink="http://www.w3.org/1999/xlink" width="36" height="36"><defs><style type="text/css"></style></defs><path d="M390.453992 699.7992c-4.983501-4.942569-10.859325-8.838296-17.615193-11.688203-6.760984-2.847861-13.94357-4.26821-21.546735-4.26821-7.605212 0-14.745842 1.421372-21.420869 4.26821-6.675026 2.849908-12.504802 6.745634-17.489326 11.688203-4.985548 4.943592-8.915044 10.725272-11.787464 17.342993-2.871397 6.618744-4.310166 13.699-4.310166 21.237697 0 7.541767 1.438769 14.622022 4.310166 21.239743 2.87242 6.618744 6.800893 12.43931 11.787464 17.466814 4.984524 5.027503 10.815323 8.965186 17.489326 11.815093 6.675026 2.847861 13.815657 4.27128 21.420869 4.27128 7.603165 0 14.785751-1.423419 21.546735-4.27128 6.756891-2.849908 12.631692-6.78759 17.615193-11.815093 4.983501-5.027503 8.915044-10.848069 11.787464-17.466814 2.87242-6.617721 4.308119-13.697977 4.308119-21.239743 0-7.538697-1.436722-14.618952-4.308119-21.237697C399.369036 710.523449 395.440563 704.741769 390.453992 699.7992z" p-id="5819" fill="#fa821e"></path><path d="M371.905544 506.301208c47.136553 0 90.417289-15.765055 124.427894-42.075281 4.349051-3.367701 8.553817-6.898107 12.590759-10.598382 4.155646-3.814886 8.136308-7.798617 11.93482-11.941983 30.598902-33.378202 49.157583-77.117378 49.157583-125.010155 0-23.00597-4.28356-45.056172-12.123109-65.458851-1.990331-5.174859-4.217045-10.241248-6.65149-15.195074-2.39249-4.863774-4.990664-9.618055-7.788383-14.247492-34.268478-56.630788-98.256838-94.727455-171.547051-94.727455-109.413945 0-198.111057 84.899622-198.111057 189.627848C173.794487 421.401586 262.491599 506.301208 371.905544 506.301208z" p-id="5820" fill="#fa821e"></path><path d="M602.303958 316.674383c0 29.758768-6.095835 58.640562-18.11866 85.84925-11.099802 25.122167-26.789133 47.783283-46.64025 67.420529 32.282241 44.26311 85.880973 73.225745 146.554844 73.225745 98.649787 0 178.61912-76.546374 178.61912-170.972976 0-94.425579-79.970356-170.969906-178.620144-170.969906-37.06722 0-71.499427 10.810207-100.041484 29.315676 0.040932 0.096191 0.084934 0.186242 0.127913 0.279363C596.208123 258.029728 602.303958 286.915615 602.303958 316.674383z" p-id="5821" fill="#fa821e"></path><path d="M571.588399 593.971943c-5.967922-3.612271-12.045337-7.064906-18.223037-10.356882-6.070252-3.237741-12.234649-6.323009-18.49626-9.241478-49.706075-23.168676-105.142665-36.138058-162.964582-36.138058-183.717232 0-343.409281 130.830721-371.45708 304.316937-1.6158 10.004865 1.412163 20.158109 8.31027 27.859511 6.927783 7.738241 17.005302 12.17632 27.646664 12.17632l289.908786 0 19.679202 0 35.615149 0 325.800227 0c10.641361 0 20.718881-4.438079 27.646664-12.17632 6.89606-7.701402 9.924024-17.854647 8.308223-27.859511C726.386998 737.538733 661.166577 648.171356 571.588399 593.971943zM450.024739 753.587244c3.124154 4.27128 7.222495 7.330966 12.291954 9.17394 1.183965 0.670266 2.196015 1.341554 3.040243 2.010797 1.859347 1.50733 3.127224 3.434216 3.802606 5.780657 0.338714 2.010797 0.254803 4.439102-0.252757 7.28901-0.50756 2.846838-1.351787 5.737678-2.535753 8.668427-1.183965 2.932796-2.619664 5.571902-4.308119 7.919367-1.690502 2.344395-3.549849 4.02057-5.577019 5.027503-2.028193 1.003863-3.803629 1.505283-5.323239 1.505283-1.52268 0-3.211135-0.333598-5.069459-1.004887-1.689479-0.500397-3.803629-0.961908-6.336312-1.379417-2.535753-0.419556-5.112438-0.503467-7.732102-0.252757-2.619664 0.252757-5.239328 0.798179-7.858992 1.632173-2.619664 0.840134-4.857635 2.264577-6.715959 4.27435-4.056386 4.188392-6.42227 8.963139-7.098675 14.32424-0.675382 5.364171 0.086981 10.474562 2.282996 15.33322 1.688455 3.350304 1.435699 6.704702-0.763386 10.05296-1.01205 1.340531-2.619664 2.724041-4.815679 4.146437-2.196015 1.425466-4.604878 2.724041-7.223518 3.897773-2.619664 1.173732-5.365194 2.093684-8.239662 2.764973-2.87242 0.669242-5.405103 1.006933-7.603165 1.006933-1.520633 0-2.956332-0.587378-4.308119-1.760087-1.353834-1.174756-2.282996-2.430352-2.790556-3.770883l-0.251733 0c-1.859347-5.194302-5.028527-9.677407-9.504468-13.44522-4.479011-3.770883-9.677407-5.656837-15.591093-5.656837-5.745864 0-10.943236 1.885953-15.588023 5.656837-4.64888 3.767813-7.902994 8.16803-9.759271 13.195533-0.846274 2.009773-2.115174 3.476171-3.802606 4.397147-1.690502 0.923022-3.547803 1.384533-5.577019 1.384533-2.364861 0-5.028527-0.419556-7.984858-1.257643-2.956332-0.840134-5.91471-1.88493-8.871041-3.142573-2.958378-1.25662-5.618974-2.721994-7.984858-4.399193-2.366907-1.674129-4.14132-3.350304-5.325285-5.025457-0.844228-1.172709-1.307785-2.555196-1.391696-4.14746-0.086981-1.591241 0.547469-3.812839 1.898233-6.6607 1.859347-3.853771 2.576685-8.250918 2.15406-13.19451-0.420579-4.941546-2.577708-9.510608-6.462179-13.697977-2.366907-2.514263-5.241374-4.146437-8.618285-4.900613-3.37998-0.754177-6.591115-1.047866-9.633405-0.881067-3.549849 0.167822-7.182586 0.837064-10.901281 2.010797-2.363837 0.669242-4.731768 0.500397-7.095605-0.503467-1.859347-0.669242-3.591805-2.219551-5.196349-4.64888-1.606591-2.428306-3.043313-5.108345-4.307096-8.042163-1.266853-2.933819-2.241041-5.948479-2.916423-9.04705-0.676405-3.100618-0.844228-5.655813-0.50756-7.66661 0.50756-3.686972 2.199085-6.034437 5.070482-7.0383 5.068436-2.010797 9.631358-5.320169 13.688767-9.928117 4.055362-4.607948 6.083555-9.760295 6.083555-15.459087 0-5.864568-2.028193-10.975982-6.083555-15.331173-4.057409-4.357238-8.618285-7.540743-13.688767-9.55154-1.52268-0.500397-2.789533-1.718131-3.802606-3.64297-1.013073-1.928932-1.520633-3.897773-1.520633-5.906523 0-2.179642 0.336668-4.609994 1.013073-7.287987 0.676405-2.683109 1.564635-5.278213 2.661619-7.792477 1.100054-2.514263 2.366907-4.818749 3.802606-6.912433 1.435699-2.094708 2.998287-3.64604 4.688789-4.649903 1.351787-0.840134 2.661619-1.173732 3.928472-1.003863 1.267876 0.164752 2.661619 0.500397 4.182252 1.003863 5.070482 2.007727 10.351766 2.636037 15.842827 1.88493 5.491061-0.754177 10.351766-3.142573 14.573927-7.164167 2.028193-2.010797 3.508917-4.482081 4.437056-7.4159 0.930185-2.930749 1.52268-5.822612 1.774413-8.670473 0.252757-2.847861 0.252757-5.445012 0-7.792477-0.251733-2.345418-0.465604-4.021593-0.633427-5.027503-0.336668-1.003863-0.63445-2.177596-0.889253-3.518127-0.251733-1.340531-0.125867-2.51324 0.38067-3.518127 1.013073-2.346441 2.830465-4.399193 5.449106-6.160303 2.619664-1.757017 5.449106-3.225461 8.491395-4.39817 3.042289-1.173732 5.998621-2.049682 8.871041-2.63706 2.87242-0.586354 5.154393-0.881067 6.844895-0.881067 2.196015 0 3.929496 0.711198 5.194302 2.137687 1.267876 1.422396 2.157129 2.888793 2.661619 4.397147 1.859347 4.524037 4.90266 8.504698 9.125845 11.94096 4.226255 3.434216 9.209756 5.1503 14.953573 5.1503 5.916756 0 11.156084-1.633197 15.719007-4.89959 4.562922-3.267417 7.774057-7.414877 9.630335-12.44238 0.678452-1.339508 1.733481-2.724041 3.169179-4.146437 1.435699-1.426489 2.916423-2.137687 4.436032-2.137687 2.363837 0 4.941546 0.333598 7.731078 1.003863 2.787486 0.670266 5.533017 1.593288 8.237615 2.765997 2.703575 1.173732 5.196349 2.681062 7.476275 4.52199 2.282996 1.843998 4.097318 3.855818 5.452175 6.034437 0.844228 1.340531 1.096984 2.805906 0.759293 4.399193-0.338714 1.590218-0.675382 2.721994-1.014096 3.390213-2.196015 4.860704-2.87242 9.972119-2.028193 15.33322 0.846274 5.361101 3.298116 10.05296 7.353478 14.0766 4.052293 4.02057 9.038864 6.240121 14.953573 6.65763 5.91471 0.419556 11.405771-0.545422 16.476253-2.886747 1.351787-0.840134 2.998287-1.175779 4.941546-1.00591 1.946328 0.166799 3.592828 0.920976 4.943592 2.260483 2.535753 2.347464 4.773723 5.907547 6.716982 10.683317 1.943258 4.774747 3.254114 9.592472 3.929496 14.452153 0.338714 2.847861-0.12689 5.067412-1.394766 6.6607-1.266853 1.590218-2.576685 2.639107-3.928472 3.142573-5.239328 1.840928-9.717316 5.067412-13.43601 9.67536-3.715625 4.609994-5.575995 9.844206-5.575995 15.708773C445.33288 744.330416 446.897515 749.313917 450.024739 753.587244z" p-id="5822" fill="#fa821e"></path><path d="M1017.44291 848.246137c-25.168216-155.687852-168.476109-273.089725-333.344041-273.089725-24.354688 0-48.235584 2.583848-71.336722 7.450692 8.909927 6.236028 17.591657 12.817933 25.996071 19.774369 73.294306 60.657498 121.775484 144.275941 136.512117 235.446383 2.530636 15.659655-0.964978 31.504528-9.624195 44.759413L986.594321 882.58727c9.129938 0 17.775852-3.809769 23.721261-10.44591C1016.232338 865.535919 1018.82949 856.82349 1017.44291 848.246137z" p-id="5823" fill="#fa821e"></path></svg>