<?xml version="1.0" standalone="no"?><!DOCTYPE svg PUBLIC "-//W3C//DTD SVG 1.1//EN" "http://www.w3.org/Graphics/SVG/1.1/DTD/svg11.dtd"><svg t="1503901338215" class="icon" style="" viewBox="0 0 1036 1024" version="1.1" xmlns="http://www.w3.org/2000/svg" p-id="15050" xmlns:xlink="http://www.w3.org/1999/xlink" width="36.421875" height="36"><defs><style type="text/css"></style></defs><path d="M800 518.4c57.6-44.8 96-115.2 96-192 0-134.4-108.8-243.2-243.2-243.2-25.6 0-44.8 19.2-44.8 44.8 0 25.6 19.2 44.8 44.8 44.8 89.6 0 160 70.4 160 160 0 70.4-70.4 140.8-134.4 166.4-6.4 0-6.4 6.4-12.8 12.8v12.8c0 6.4 6.4 12.8 12.8 12.8H697.6c140.8 19.2 249.6 134.4 249.6 281.6 0 25.6 19.2 44.8 44.8 44.8 25.6 0 44.8-19.2 44.8-44.8-19.2-115.2-108.8-243.2-236.8-300.8z" p-id="15051" fill="#f03b42"></path><path d="M505.6 537.6c76.8-38.4 121.6-121.6 121.6-211.2 0-134.4-108.8-236.8-236.8-236.8S153.6 198.4 153.6 326.4c0 89.6 51.2 166.4 121.6 211.2-140.8 44.8-243.2 160-262.4 307.2-6.4 32 19.2 57.6 44.8 57.6h665.6c32 0 51.2-25.6 44.8-57.6-19.2-147.2-121.6-262.4-262.4-307.2z" p-id="15052" fill="#f03b42"></path></svg>