<?xml version="1.0" standalone="no"?><!DOCTYPE svg PUBLIC "-//W3C//DTD SVG 1.1//EN" "http://www.w3.org/Graphics/SVG/1.1/DTD/svg11.dtd"><svg t="1503891917392" class="icon" style="" viewBox="0 0 1024 1024" version="1.1" xmlns="http://www.w3.org/2000/svg" p-id="2437" xmlns:xlink="http://www.w3.org/1999/xlink" width="36" height="36"><defs><style type="text/css"></style></defs><path d="M965.683 905.874c-12.538 0-22.684-10.142-22.684-22.684 0-89.384-34.779-173.498-97.937-236.853-8.838-8.884-8.817-23.238 0.045-32.078 8.884-8.841 23.238-8.841 32.076 0.043 71.709 71.907 111.187 167.409 111.187 268.887 0 12.542-10.149 22.684-22.687 22.684zM610.591 547.113c-1.588 0.195-3.107 0.697-4.755 0.531-183.292 0.071-333.794 150.572-333.794 335.546 0 12.543-10.148 22.684-22.684 22.684-12.54 0-22.684-10.142-22.684-22.684 0-171.080 113.403-316.112 268.969-364.018-74.736-40.072-125.709-118.907-125.709-209.467 0-131.011 106.575-237.583 237.586-237.583 130.992 0 237.565 106.573 237.565 237.583-0.001 129.951-104.93 235.741-234.495 237.409zM607.52 117.488c-105.998 0-192.218 86.216-192.218 192.218 0 105.979 86.219 192.194 192.218 192.194 105.979 0 192.197-86.216 192.197-192.194 0-106.001-86.219-192.218-192.197-192.218zM344.856 530.391c-145.497 0-263.858 125.979-263.858 280.849 0 12.538-10.144 22.684-22.684 22.684-12.538 0-22.684-10.147-22.684-22.684 0-143.732 88.677-265.807 211.263-309.164-57.702-35.582-96.646-101.367-96.646-176.685 0-112.936 87.305-204.823 194.611-204.823 12.54 0 22.684 10.147 22.684 22.684 0 12.535-10.144 22.684-22.684 22.684-82.296 0-149.243 71.528-149.243 159.455 0 87.922 66.945 159.452 149.243 159.452 12.54 0 22.684 10.148 22.684 22.684 0 0.032-0.016 0.058-0.016 0.091 0 0.030 0.016 0.056 0.016 0.088-0.001 12.54-10.145 22.687-22.686 22.687z" fill="#f03b42" p-id="2438"></path></svg>