<?xml version="1.0" standalone="no"?><!DOCTYPE svg PUBLIC "-//W3C//DTD SVG 1.1//EN" "http://www.w3.org/Graphics/SVG/1.1/DTD/svg11.dtd"><svg t="1502769341435" class="icon" style="" viewBox="0 0 1024 1024" version="1.1" xmlns="http://www.w3.org/2000/svg" p-id="15643" xmlns:xlink="http://www.w3.org/1999/xlink" width="36" height="36"><defs><style type="text/css"></style></defs><path d="M512 183.8S302.5 288.6 302.5 456.1c0 95.8 41.9 148.3 41.9 148.3s-80-50.8-125.7-109.3c0 275.3 144.8 359.2 293.3 359.2 209.4 0 293.3-143.7 293.3-249.8 0-156.2-135.4-177-135.4-348.8 0 0-79 34.4-79 143.7 0.1-0.1-78.9-12.1-78.9-215.6z" fill="#ff7c63" p-id="15644"></path><path d="M512 877c-95 0-316-37.2-316-381.9v-66l40.6 52c14.9 19.1 34 37.6 52.6 53.5-5.5-22.1-9.4-48.3-9.4-78.4 0-179.6 213-288.1 222.1-292.7l32.9-16.5v36.8c0 102 20.1 150.6 37.2 173.5 17-90.1 85.6-121.1 88.9-122.5l31.8-13.9v34.7c0 80.5 31.9 124 65.7 170.1 34.3 46.7 69.7 95 69.7 178.7C828 714 743.9 877 512 877zM244 555.3C265.8 794 418.3 831.5 512 831.5c198.5 0 270.6-135.8 270.6-227.1 0-68.8-28.2-107.3-60.9-151.8-29.3-40-61.9-84.4-71.7-154.1-17.5 18.5-36.4 50.3-36.4 100.8v27l-26.6-4.6c-9.4-1.6-86.7-20.5-96.6-198.9-55.8 35.6-165.1 120-165.1 233.3 0 85.7 36.6 133.7 37 134.2l80.6 103.5-110.7-70.2c-2.5-1.6-46.2-29.5-88.2-68.3z" fill="#ff5643" p-id="15645" class="selected"></path></svg>