<?xml version="1.0" standalone="no"?><!DOCTYPE svg PUBLIC "-//W3C//DTD SVG 1.1//EN" "http://www.w3.org/Graphics/SVG/1.1/DTD/svg11.dtd"><svg t="1503900243958" class="icon" style="" viewBox="0 0 1024 1024" version="1.1" xmlns="http://www.w3.org/2000/svg" p-id="8581" xmlns:xlink="http://www.w3.org/1999/xlink" width="36" height="36"><defs><style type="text/css"></style></defs><path d="M509.73696 866.7392h-363.0592a14.8992 14.8992 0 0 1-14.88384-14.88896V123.75552a14.8992 14.8992 0 0 1 14.88384-14.88896h631.5008a14.90432 14.90432 0 0 1 14.88896 14.88896v363.19232a25.15456 25.15456 0 0 0 25.12896 25.12896 25.14944 25.14944 0 0 0 25.1136-25.12896V123.75552c0-35.92192-29.21984-65.14688-65.14688-65.14688H146.67776c-35.92192 0-65.14688 29.22496-65.14688 65.14688v728.09472c0 35.93216 29.22496 65.152 65.14688 65.152h363.0592a25.15968 25.15968 0 0 0 25.13408-25.12896 25.16992 25.16992 0 0 0-25.13408-25.13408z" p-id="8582" fill="#fa821e"></path><path d="M704.83968 204.00128a25.15456 25.15456 0 0 0-25.12896-25.12896H231.35744a25.15968 25.15968 0 0 0-25.12896 25.12896 25.15968 25.15968 0 0 0 25.12896 25.12896h448.35328a25.15456 25.15456 0 0 0 25.12896-25.12896zM452.03456 322.61632H231.35744c-13.85472 0-25.12896 11.27424-25.12896 25.12896s11.27424 25.12896 25.12896 25.12896h220.67712c13.85472 0 25.12384-11.27424 25.12384-25.12896s-11.26912-25.12896-25.12384-25.12896zM452.03456 466.36544H231.35744c-13.85472 0-25.12896 11.27424-25.12896 25.13408s11.27424 25.12896 25.12896 25.12896h220.67712a25.14944 25.14944 0 0 0 25.12384-25.12896 25.15968 25.15968 0 0 0-25.12384-25.13408z" p-id="8583" fill="#fa821e"></path><path d="M868.79232 538.01984h-126.10048V355.6352c0-50.65728-41.22112-91.87328-91.86816-91.87328h-0.7424c-50.90816 0-92.32896 41.4208-92.32896 92.3392v198.59968a135.33184 135.33184 0 0 0-30.72 23.40864 91.8272 91.8272 0 0 0-45.62944-12.06784c-24.57088 0-47.6416 9.53856-64.96256 26.86976-35.84512 35.85024-35.84512 94.17216 0 130.01216l93.64992 93.64992c1.6128 1.6128 3.456 3.01568 5.48352 4.15744 10.68032 10.51648 24.5248 19.4048 43.35104 27.79648l-0.8192 50.57024a25.344 25.344 0 0 0 7.28064 17.90976 25.30816 25.30816 0 0 0 17.84832 7.43936h268.0832c13.63968 0 24.9088-11.10528 25.12896-24.73984l1.34144-46.63296c18.19648-1.51552 39.2704-6.1696 51.98848-24.03328 12.69248-17.82784 12.69248-40.7552 12.69248-78.73024v-138.58816c0-40.6528-33.05984-73.7024-73.6768-73.7024z m-369.792 82.1248a137.14944 137.14944 0 0 0-10.84416 53.84704v49.57184l-36.18304-36.1728c-7.85408-7.85408-12.1856-18.31936-12.1856-29.4656s4.33152-21.61152 12.1856-29.4656a41.35424 41.35424 0 0 1 29.4656-12.12928 41.86112 41.86112 0 0 1 17.5616 3.8144z m94.30016 188.20608c-42.56768-16.55808-54.88128-29.57824-54.88128-58.0608v-76.29824c0-35.88096 21.38112-67.45088 54.48192-80.41984a25.14432 25.14432 0 0 0 15.77984-26.29632 110.5408 110.5408 0 0 0-0.47104-3.5072c-0.09216-0.57856-0.18944-1.24928-0.20992-1.29024V356.10112c0-23.20384 18.88256-42.07616 42.08128-42.07616h0.7424c22.9376 0 41.61536 18.66752 41.61536 41.61024v207.5136c0 13.85984 11.264 25.12896 25.12384 25.12896h151.22944a23.4496 23.4496 0 0 1 23.41888 23.41888v138.58304c0 21.01248 0 44.83584-3.26144 49.44384-0.43008 0.39936-5.09952 3.87584-35.92192 3.87584-13.64992 0-24.91904 11.10016-25.11872 24.73984l-1.34144 45.824h-217.98912l0.74752-42.17856a25.27232 25.27232 0 0 0-16.0256-23.63392z" p-id="8584" fill="#fa821e"></path></svg>