<?xml version="1.0" standalone="no"?><!DOCTYPE svg PUBLIC "-//W3C//DTD SVG 1.1//EN" "http://www.w3.org/Graphics/SVG/1.1/DTD/svg11.dtd"><svg t="1503975268841" class="icon" style="" viewBox="0 0 1024 1024" version="1.1" xmlns="http://www.w3.org/2000/svg" p-id="2692" xmlns:xlink="http://www.w3.org/1999/xlink" width="50" height="50"><defs><style type="text/css"></style></defs><path d="M844.671 1024h-665.344c-97.28 0-176.384-77.632-176.384-172.992v-677.951c0-95.424 79.104-173.056 176.384-173.056h665.344c97.216 0 176.384 77.632 176.384 173.056v677.951c0 95.36-79.168 172.992-176.384 172.992zM179.329 75.008c-55.936 0-101.376 43.968-101.376 97.984v677.951c0 54.016 45.441 97.921 101.376 97.921h665.344c55.871 0 101.311-43.968 101.312-97.921v-677.888c0-54.016-45.441-97.984-101.312-97.984h-665.344zM751.168 233.28l-304.384 368.896-188.416-144.896-87.681 108.415 187.456 144.064-0.256 0.32 102.144 80.576 393.28-476.543z" fill="#dcdcdc" p-id="2693"></path></svg>