<?xml version="1.0" standalone="no"?><!DOCTYPE svg PUBLIC "-//W3C//DTD SVG 1.1//EN" "http://www.w3.org/Graphics/SVG/1.1/DTD/svg11.dtd"><svg t="1503908780910" class="icon" style="" viewBox="0 0 1024 1024" version="1.1" xmlns="http://www.w3.org/2000/svg" p-id="8342" xmlns:xlink="http://www.w3.org/1999/xlink" width="36" height="36"><defs><style type="text/css"></style></defs><path d="M511.99872 3.456C229.93792 3.456 1.28 231.13984 1.28 511.99744 1.28 792.86016 229.93792 1020.544 511.99872 1020.544 794.06592 1020.544 1022.72 792.86016 1022.72 511.99744 1022.72 231.13984 794.06592 3.456 511.99872 3.456L511.99872 3.456zM520.3072 872.28032c-188.20096 0-341.3312-152.47616-341.3312-339.87584 0-187.3984 153.13024-339.87456 341.3312-339.87456l0.02816 0L520.33536 118.64448l178.08384 118.21696-178.08384 118.21952L520.33536 281.1904l-0.02816 0c-139.10784 0-252.28544 112.69376-252.28544 251.21536 0 138.5152 113.1776 251.21152 252.28544 251.21152s252.28672-112.69632 252.28672-251.21152c0-24.50432 19.91168-44.33152 44.52224-44.33152 24.60928 0 44.52224 19.8272 44.52224 44.33152C861.63712 719.80416 708.50304 872.28032 520.3072 872.28032L520.3072 872.28032zM520.3072 872.28032" p-id="8343" fill="#faa51e"></path></svg>