<?xml version="1.0" standalone="no"?><!DOCTYPE svg PUBLIC "-//W3C//DTD SVG 1.1//EN" "http://www.w3.org/Graphics/SVG/1.1/DTD/svg11.dtd"><svg t="1504085121595" class="icon" style="" viewBox="0 0 1024 1024" version="1.1" xmlns="http://www.w3.org/2000/svg" p-id="2632" xmlns:xlink="http://www.w3.org/1999/xlink" width="128" height="128"><defs><style type="text/css"></style></defs><path d="M329.088 54c-0.608-0.624-1.088-1.248-1.696-1.84-67.6-67.616-177.184-67.6-244.768 0-66.224 66.16-67.408 172.528-4 240.4C134.192 188.576 222.16 104.56 329.088 54zM945.376 292.56c63.408-67.888 62.224-174.256-4-240.4-67.584-67.6-177.168-67.616-244.768 0-0.608 0.592-1.088 1.216-1.696 1.84 106.928 50.56 194.896 134.576 250.464 238.56z" p-id="2633" fill="#f03b42"></path><path d="M749.04 906.144C875.696 826.992 960 686.4 960 526.048c0-247.424-200.576-448-448-448s-448 200.576-448 448c0 160.352 84.304 300.944 210.96 380.096l-72.64 72.64c-10.016 10.016-10.016 26.256 0 36.256 9.984 10.016 26.224 10.016 36.24 0l83.328-83.328c57.712 27.104 122.144 42.336 190.128 42.336s132.4-15.232 190.128-42.336l83.328 83.328c10.016 10.016 26.256 10.016 36.24 0 10.016-10 10.016-26.24 0-36.256l-72.672-72.64zM511.568 577.456c-9.648 0-18.16-4.464-23.952-11.376-4.672-5.488-7.6-12.464-7.6-20.176v-0.288c0-0.048-0.016-0.096-0.016-0.16s0.016-0.096 0.016-0.16L480 224.992c0.016-17.44 14.336-31.552 32.016-31.536 17.664 0 32.016 14.112 32.016 31.536l-0.016 288.464h288.416c17.456 0 31.6 14.304 31.568 32 0 17.68-14.112 32-31.552 32h-320.88z" p-id="2634" fill="#f03b42"></path></svg>