<?xml version="1.0" standalone="no"?><!DOCTYPE svg PUBLIC "-//W3C//DTD SVG 1.1//EN" "http://www.w3.org/Graphics/SVG/1.1/DTD/svg11.dtd"><svg t="1503908090333" class="icon" style="" viewBox="0 0 1024 1024" version="1.1" xmlns="http://www.w3.org/2000/svg" p-id="13753" xmlns:xlink="http://www.w3.org/1999/xlink" width="36" height="36"><defs><style type="text/css"></style></defs><path d="M672.711 140.83v-61.862c0-17.675-17.675-35.349-35.349-35.349s-35.349 17.675-35.349 35.349v61.862h70.7zM672.711 140.83z" p-id="13754" fill="#f03b83"></path><path d="M257.356 140.83v-61.862c0-17.675-17.675-35.349-35.349-35.349s-35.349 17.675-35.349 35.349v61.862h70.7zM257.356 140.83z" p-id="13755" fill="#f03b83"></path><path d="M840.623 591.536c-97.211 0-176.747 79.536-176.747 176.747s79.536 176.747 176.747 176.747c97.211 0 176.747-79.536 176.747-176.747 0-97.211-79.536-176.747-176.747-176.747v0 0 0zM955.509 724.098l-123.723 123.723c-8.837 8.837-8.837 8.837-17.675 8.837s-8.837 0-17.675-8.837l-61.862-70.7c-8.837-8.837-8.837-26.511 0-35.349s26.511-8.837 35.349 0l53.025 53.025 106.048-106.048c8.837-8.837 26.511-8.837 35.349 0 0 8.837 0 26.511-8.837 35.349v0 0 0zM955.509 724.098z" p-id="13756" fill="#f03b83"></path><path d="M602.012 768.284c0-132.561 106.048-238.609 238.609-238.609v-318.145c0-35.349-26.511-61.862-61.862-61.862h-114.886v61.862c0 17.675-17.675 35.349-35.349 35.349s-35.349-17.675-35.349-35.349v-70.7h-353.495v61.862c0 17.675-17.675 35.349-35.349 35.349s-35.349-17.675-35.349-35.349v-61.862h-88.374c-35.349 0-61.862 26.511-61.862 61.862v698.154c0 35.349 26.511 61.862 61.862 61.862h645.13c-70.7-26.511-123.723-106.048-123.723-194.422v0 0 0zM80.608 379.439c0-17.675 17.675-35.349 35.349-35.349h636.292c17.675 0 35.349 17.675 35.349 35.349s-17.675 35.349-35.349 35.349h-645.13c-17.675-8.837-26.511-17.675-26.511-35.349v0 0 0zM434.102 847.82h-273.958c-17.675 0-35.349-17.675-35.349-35.349s17.675-35.349 35.349-35.349h273.958c17.675 0 35.349 17.675 35.349 35.349-8.837 17.675-17.675 35.349-35.349 35.349v0 0 0zM434.102 653.398h-273.958c-17.675 0-35.349-17.675-35.349-35.349 0-17.675 17.675-35.349 35.349-35.349h273.958c17.675 0 35.349 17.675 35.349 35.349-8.837 26.511-17.675 35.349-35.349 35.349v0 0 0zM434.102 653.398z" p-id="13757" fill="#f03b83"></path></svg>