<?xml version="1.0" standalone="no"?><!DOCTYPE svg PUBLIC "-//W3C//DTD SVG 1.1//EN" "http://www.w3.org/Graphics/SVG/1.1/DTD/svg11.dtd"><svg t="1502786078795" class="icon" style="" viewBox="0 0 1026 1024" version="1.1" xmlns="http://www.w3.org/2000/svg" p-id="1072" xmlns:xlink="http://www.w3.org/1999/xlink" width="30.05859375" height="30"><defs><style type="text/css"></style></defs><path d="M1007.031537 113.548102c-10.120498-10.143011-23.569812-16.535605-37.838793-17.995863-26.412556-2.665713-98.716302 39.641859-139.464355 65.113997-58.388828 36.46654-146.299017 98.28549-233.568616 185.554066L405.120784 537.238824c-24.300452 24.311709-24.300452 63.897286 0 88.208994l0.88516 0.873903L143.867642 888.436488c-24.300452 24.321942-24.300452 63.897286 0 88.208994 24.344454 24.311709 63.897286 24.311709 88.208994 0l774.966157-774.943644c16.912182-16.922415 22.663162-42.462091 14.622022-65.036225C1018.622526 128.104633 1013.534648 120.04098 1007.031537 113.548102L1007.031537 113.548102z" p-id="1073" fill="#ff9500"></path><path d="M664.405085 608.082312l-88.197738 88.186482 273.995351 273.984095c24.300452 24.311709 63.86454 24.311709 88.175225 0 24.344454-24.311709 24.333198-63.875796 0-88.197738L664.405085 608.082312z" p-id="1074" fill="#ff9500"></path><path d="M310.828234 428.998611l68.499094 68.499094 86.958514-86.958514-65.147766-65.147766c12.034081-40.868803 1.991354-86.87051-30.195719-119.079072-0.320295-0.310062-0.708128-0.531096-1.028423-0.818645-0.276293-0.342808-0.497327-0.729617-0.829901-1.028423L178.254823 33.635051c-8.029884-8.008394-20.98187-8.008394-28.990265 0-8.018627 8.018627-8.018627 20.98187 0 28.990265L326.468446 239.82818l-0.011256 0.011256c0.044002 0.044002 0.110517 0.055259 0.154519 0.099261 4.988618 4.988618 4.988618 13.096273 0 18.083867-4.999874 4.999874-13.096273 4.999874-18.083867 0-0.044002-0.044002-0.055259-0.088004-0.099261-0.144286l-0.011256 0.022513L131.214461 80.676437c-8.029884-8.018627-20.993127-7.985882-29.001521 0-7.997138 8.029884-8.008394 20.970614 0 29.001521l177.202864 177.214121-0.022513 0.032746c0.044002 0.032746 0.099261 0.044002 0.144286 0.088004 4.999874 4.988618 4.999874 13.085016 0 18.083867-4.999874 4.988618-13.096273 4.988618-18.073634 0-0.044002-0.044002-0.044002-0.088004-0.088004-0.13303l-0.022513 0.022513L84.10656 127.772059c-8.008394-8.029884-20.960381-8.04114-29.001521 0-8.008394 8.008394-7.997138 20.970614 0 28.979008l177.225377 177.202864c0.044002 0.044002 0.099261 0.055259 0.154519 0.099261 4.999874 4.988618 4.999874 13.085016 0 18.083867-4.988618 4.988618-13.085016 4.988618-18.073634 0-0.032746-0.044002-0.044002-0.099261-0.088004-0.144286l-0.044002 0.055259-177.236634-177.202864c-7.985882-8.018627-20.970614-8.008394-28.979008 0-8.018627 7.985882-8.029884 20.970614 0 28.979008l190.818977 190.82921c0.342808 0.320295 0.708128 0.552585 1.050935 0.840134 0.287549 0.320295 0.497327 0.719384 0.807389 1.028423C230.627634 426.366667 272.359085 437.106266 310.828234 428.998611z" p-id="1075" fill="#ff9500"></path><path d="M926.84117 871.093495 676.372651 620.61372l-86.948281 86.958514L839.904145 958.053032c23.968901 23.968901 62.990636 23.979134 86.937025 0C950.842817 934.072875 950.821327 895.073652 926.84117 871.093495z" p-id="1076" fill="#ff9500"></path></svg>