<?xml version="1.0" standalone="no"?><!DOCTYPE svg PUBLIC "-//W3C//DTD SVG 1.1//EN" "http://www.w3.org/Graphics/SVG/1.1/DTD/svg11.dtd"><svg t="1503900730873" class="icon" style="" viewBox="0 0 1024 1024" version="1.1" xmlns="http://www.w3.org/2000/svg" p-id="13290" xmlns:xlink="http://www.w3.org/1999/xlink" width="36" height="36"><defs><style type="text/css"></style></defs><path d="M696.821 846.122c0 0 0 0 0 0-10.597 0-19.188-8.585-19.2-19.178v-584.057c0.339-10.338 8.801-18.589 19.191-18.589 10.374 0 18.827 8.228 19.188 18.514l0.001 584.153c0 0 0 0 0 0 0 10.581-8.577 19.158-19.158 19.158-0.009 0-0.015 0-0.022 0z" p-id="13291" fill="#ff5643"></path><path d="M696.821 230.198c-0.007 0-0.013 0-0.021 0-6.997 0-12.668 5.673-12.668 12.668 0 0.007 0 0.015 0 0.022v584.076c0 7.008 5.681 12.689 12.689 12.689s12.689-5.681 12.689-12.689v-584.097c0 0 0 0 0 0 0-6.997-5.671-12.668-12.668-12.668-0.007 0-0.015 0-0.022 0zM622.797 846.122c-0.007 0-0.013 0-0.021 0-10.597 0-19.188-8.585-19.2-19.178v-584.057c0.586-10.154 8.963-18.166 19.211-18.166 10.234 0 18.602 7.989 19.207 18.070l0.003 584.171c-0.023 10.586-8.611 19.158-19.2 19.158 0 0 0 0 0 0z" p-id="13292" fill="#ff5643"></path><path d="M622.797 230.198c0 0 0 0 0 0-7.012 0-12.698 5.678-12.71 12.687v584.077c0.284 6.794 5.861 12.195 12.699 12.195s12.415-5.399 12.698-12.169l0.001-584.102c0-7.008-5.681-12.689-12.689-12.689zM507.242 293.183c-10.727-20.494-23.082-37.002-36.751-49.106-17.657-15.631-37.002-23.52-57.474-23.52-20.494 0-39.819 7.93-57.474 23.52-13.67 12.103-26.046 28.613-36.751 49.106-20.306 38.817-29.363 81.495-29.363 106.56 0 27.193 9.433 55.554 26.526 79.889 13.92 19.763 31.554 34.998 51.297 44.41v279.443c0 25.252 20.535 45.767 45.767 45.767s45.767-20.514 45.767-45.767v-279.465c19.785-9.391 37.398-24.626 51.297-44.39 17.113-24.292 26.546-52.695 26.546-79.889 0.021-25.043-9.078-67.743-29.383-106.56zM422.574 507.847v295.68c0 5.268-4.27 9.537-9.537 9.537s-9.537-4.27-9.537-9.537v-295.68c0 0 0 0 0 0 0-5.739-3.817-10.587-9.052-12.144-37.363-10.625-68.793-54.555-68.793-95.939 0-19.993 7.889-56.598 25.253-89.802 10.372-19.868 32.265-53.197 62.15-53.197s51.757 33.329 62.15 53.197c17.363 33.203 25.252 69.788 25.252 89.802 0 41.383-31.43 85.314-68.64 95.874-5.378 1.545-9.246 6.419-9.246 12.197 0 0.004 0 0.009 0 0.012z" p-id="13293" fill="#ff5643"></path><path d="M512 992c-264.668 0-480-215.332-480-480s215.332-480 480-480 480 215.332 480 480-215.332 480-480 480zM512 72.007c-242.609 0-439.993 197.383-439.993 439.993s197.383 440.014 439.993 440.014c242.609 0 440.014-197.406 440.014-440.014s-197.406-439.993-440.014-439.993z" p-id="13294" fill="#ff5643"></path></svg>