<?xml version="1.0" standalone="no"?><!DOCTYPE svg PUBLIC "-//W3C//DTD SVG 1.1//EN" "http://www.w3.org/Graphics/SVG/1.1/DTD/svg11.dtd"><svg t="1503909058669" class="icon" style="" viewBox="0 0 1024 1024" version="1.1" xmlns="http://www.w3.org/2000/svg" p-id="1474" xmlns:xlink="http://www.w3.org/1999/xlink" width="36" height="36"><defs><style type="text/css"></style></defs><path d="M544 224l0-64 64 0c17.6 0 32-14.4 32-32 0-17.6-14.4-32-32-32L416 96c-17.6 0-32 14.4-32 32 0 17.6 14.4 32 32 32l64 0c0 0 0 67.2 0 64C212.8 240 0 464 0 736c0 25.6 0 14.4 0 32 0 17.6 14.4 32 32 32l960 0c17.6 0 32-14.4 32-32 0-17.6 0-4.8 0-32C1024 464 811.2 240 544 224z" p-id="1475" fill="#faba1e"></path><path d="M992 864 32 864c-17.6 0-32 14.4-32 32s14.4 32 32 32l960 0c17.6 0 32-14.4 32-32S1009.6 864 992 864z" p-id="1476" fill="#faba1e"></path></svg>