<?xml version="1.0" standalone="no"?><!DOCTYPE svg PUBLIC "-//W3C//DTD SVG 1.1//EN" "http://www.w3.org/Graphics/SVG/1.1/DTD/svg11.dtd"><svg t="1502786212855" class="icon" style="" viewBox="0 0 1024 1024" version="1.1" xmlns="http://www.w3.org/2000/svg" p-id="1391" xmlns:xlink="http://www.w3.org/1999/xlink" width="32" height="32"><defs><style type="text/css"></style></defs><path d="M54.356 434.723h915.287v40.689h-915.287v-40.689zM54.356 434.723z" p-id="1392" fill="#ffb900"></path><path d="M723.9 823.861h-423.801l-48.804 123.426h521.408l-48.804-123.426zM723.9 823.861z" p-id="1393" fill="#ffb900"></path><path d="M97.242 506.48c16.65 121.113 96.257 224.417 208.244 282.234h413.015c111.987-57.817 191.578-161.121 208.244-282.234h-829.504zM97.242 506.48z" p-id="1394" fill="#ffb900"></path><path d="M25.623 590.303c-10.595 0-19.255 9.172-19.255 20.337 0 11.157 8.66 20.337 19.255 20.337h80.812c-7.103-13.147-13.429-26.717-18.921-40.689l-61.891 0.017zM25.623 590.303z" p-id="1395" fill="#ffb900"></path><path d="M998.377 590.303c10.612 0 19.255 9.172 19.255 20.337 0 11.157-8.643 20.337-19.255 20.337h-80.807c7.12-13.147 13.422-26.717 18.915-40.689l61.891 0.017zM998.377 590.303z" p-id="1396" fill="#ffb900"></path><path d="M519.943 368.934l-23.363-16.652c32.046-44.976 27.65-63.913 24.126-79.129-4.125-17.818-13.018-32.062-22.461-47.171-10.893-17.466-22.175-35.516-25.262-58.934-5.277-39.982 18.866-70.341 37.484-89.666l20.688 19.893c-23.381 24.304-32.539 44.636-29.723 66.016 2.288 17.239 11.035 31.251 21.155 47.475 9.774 15.677 20.844 33.407 26.073 55.89 5.491 23.684 7.773 51.070-28.718 102.279z" p-id="1397" fill="#ffb900"></path><path d="M412.227 406.807l-22.85-17.342c31.657-41.7 27.37-59.075 23.932-73.017-4.093-16.493-12.931-29.796-22.304-43.879-10.979-16.526-22.337-33.587-25.474-55.886-5.346-38.23 19.008-67.010 37.804-85.364l20.033 20.548c-23.082 22.515-32.147 41.29-29.424 60.809 2.234 15.84 10.915 28.894 20.959 43.983 9.828 14.796 20.991 31.549 26.251 52.858 5.579 22.625 7.952 48.736-28.928 97.291z" p-id="1398" fill="#ffb900"></path><path d="M627.169 406.807l-22.889-17.342c31.674-41.717 27.387-59.075 23.948-73.017-4.069-16.493-12.909-29.796-22.284-43.879-11.001-16.526-22.353-33.587-25.488-55.886-5.351-38.246 19.007-67.034 37.819-85.364l20.035 20.548c-23.098 22.515-32.154 41.257-29.408 60.809 2.218 15.84 10.876 28.894 20.942 43.983 9.844 14.796 20.991 31.549 26.267 52.858 5.525 22.609 7.898 48.719-28.943 97.291z" p-id="1399" fill="#ffb900"></path></svg>