<?xml version="1.0" standalone="no"?>
<!DOCTYPE svg PUBLIC "-//W3C//DTD SVG 1.1//EN" "http://www.w3.org/Graphics/SVG/1.1/DTD/svg11.dtd" >
<svg xmlns="http://www.w3.org/2000/svg">
<metadata>Generated by IcoMoon</metadata>
<defs>
<font id="icomoon" horiz-adv-x="1024">
<font-face units-per-em="1024" ascent="877.7142857142858" descent="-146.28571428571428" />
<missing-glyph horiz-adv-x="1024" />
<glyph unicode="&#x20;" horiz-adv-x="256" d="" />
<glyph unicode="&#xe801;" glyph-name="down" d="M513.502 119.202l-383.073 333.777 60.593 68.809 322.48-280.373 323.507 280.373 60.593-68.809-384.1-333.777z" />
<glyph unicode="&#xe803;" glyph-name="left" d="M314.264 317.414l333.777 383.073 68.809-60.593-280.373-322.48 280.373-323.507-68.809-60.593-333.777 383.073v1.027z" />
<glyph unicode="&#xe806;" glyph-name="right" d="M716.85 316.387l-333.777-383.073-68.809 60.593 281.4 323.507-281.4 322.48 69.836 60.593 332.75-383.073v-1.027z" />
<glyph unicode="&#xe809;" glyph-name="up" d="M513.502 521.789l384.1-333.777-60.593-68.809-323.507 280.373-322.48-280.373-60.593 68.809 383.073 333.777z" />
<glyph unicode="&#xe80e;" glyph-name="bars" d="M898.631 608.057h-770.254v-63.674l770.254-1.027v64.701zM898.631 285.577v64.701h-770.254v-64.701h770.254zM128.375 93.527v-62.647h770.254v62.647h-770.254z" />
<glyph unicode="&#xe810;" glyph-name="check" d="M880.145 510.492l-83.187 85.241-363.56-382.046-138.645 131.456-83.187-85.241 221.833-216.698 446.747 467.287z" />
<glyph unicode="&#xe811;" glyph-name="close" d="M218.752 568.004l544.314-544.314 44.161 45.188-543.287 544.314-45.188-45.188zM763.065 613.192l-544.314-544.314 44.161-45.188 545.341 544.314-45.188 45.188z" />
<glyph unicode="&#xe819;" glyph-name="search" d="M960.251-51.281l-286.535 286.535c40.053 55.458 63.674 123.24 63.674 196.158 0 185.888-150.969 336.858-336.858 336.858s-335.831-150.969-335.831-336.858 150.969-335.831 335.831-335.831c72.917 0 139.672 22.594 195.131 62.647l286.535-287.562 78.052 78.052zM130.429 431.413c0 149.942 121.186 270.103 270.103 270.103s271.13-120.159 271.13-270.103-121.186-270.103-271.13-270.103-270.103 121.186-270.103 270.103z" />
<glyph unicode="&#xe825;" glyph-name="refresh" d="M834.956 254.767c-28.756-148.915-165.347-256.751-321.453-256.751-176.645 0-320.426 142.753-320.426 320.426s144.807 320.426 320.426 321.453v-100.646l226.968 132.483-226.968 131.456v-97.565c0-2.054 0-2.054 0-2.054-211.563 0-385.127-171.509-385.127-385.127s173.563-385.127 385.127-385.127c192.050 0 356.371 136.591 385.127 321.453h-63.674z" />
<glyph unicode="&#xe901;" glyph-name="bar-chart" d="M186.111 69.454h177.609v409.642h-177.609v-409.642zM423.033 69.454h177.609v558.573h-177.609v-558.573zM656.697 372.204v-302.751h181.194v302.751h-181.194z" />
<glyph unicode="&#xe902;" glyph-name="about" d="M742.445 314.561c-16.814 0-33.63-2.588-49.152-6.466l-112.532 226.356c16.814 12.936 28.457 31.042 33.63 51.738l162.976-24.576c7.762-32.338 37.512-58.206 72.435-58.206 41.39 0 75.020 32.338 75.020 73.727s-33.63 73.727-73.727 73.727c-29.749 0-55.618-18.109-67.261-42.685l-166.857 24.576c-10.347 43.978-49.152 76.314-97.010 76.314-54.325 0-99.596-43.978-99.596-98.303s43.978-98.303 99.596-98.303c6.466 0 12.936 1.293 19.402 2.588l109.943-223.768c-63.38-32.338-107.358-98.303-107.358-174.617 0-5.174 0-9.055 1.293-12.936l-216.008-18.109c-14.228 56.913-65.965 99.596-128.053 99.596-75.020 0-134.519-59.499-134.519-130.639s59.499-130.639 133.226-130.639c68.554 0 124.172 50.444 131.934 115.117l222.475 19.402c25.868-80.194 100.889-138.4 191.433-138.4 109.943 0 200.486 87.956 200.486 197.899-2.588 108.65-91.837 196.606-201.78 196.606z" />
<glyph unicode="&#xe903;" glyph-name="home" d="M1026.003 246.363l-513.001 398.203-513.001-398.205v162.355l513.001 398.203 513.001-398.205zM897.753 260.835v-384.751h-256.5v256.5h-256.5v-256.5h-256.5v384.751l384.751 288.564z" />
<glyph unicode="&#xe904;" glyph-name="info" d="M652.255 767.268v-0.8c-3.64 0-18.662 1.377-56.453 0.8h-338.718c-62.353 0-112.906-50.553-112.906-112.906v-677.451c0-62.353 50.553-112.907 112.906-112.907h508.078c62.353 0 112.906 50.554 112.906 112.907v564.544l-225.813 225.813zM821.615-23.089c0-31.148-25.278-56.454-56.453-56.454h-508.078c-31.175 0-56.453 25.306-56.453 56.454v677.451c0 31.174 25.278 56.453 56.453 56.453h337.919c-0.525-67.59 0.8-112.906 0.8-112.906 0-62.352 50.553-112.906 112.906-112.906 0 0 47.191 0 112.906 0v-508.091zM708.708 541.455c-31.175 0-56.453 25.278-56.453 56.453 0 0 0 45.704 0 112.906l169.359-169.359h-112.906zM680.482 146.269h-338.719c-15.601 0-28.228-12.625-28.228-28.228 0-15.546 12.624-28.228 28.228-28.228h338.719c15.601 0 28.228 12.678 28.228 28.228 0 15.6-12.624 28.228-28.228 28.228zM680.482 315.642h-338.719c-15.601 0-28.228-12.651-28.228-28.228 0-15.601 12.624-28.228 28.228-28.228h338.719c15.601 0 28.228 12.624 28.228 28.228 0 15.574-12.624 28.228-28.228 28.228z" />
<glyph unicode="&#xe905;" glyph-name="pay" d="M282.18-136.214c16.063 17.326 27.668 30.37 39.93 42.796 81.041 81.462 162.781 162.123 243.061 244.19 18.363 19.042 37.897 40.732 46 64.916 5.978 17.695 0.669 47.57-11.768 60.91-12.181 13.3-40.691 19.605-59.883 16.371-20.171-3.45-40.176-19.329-56.198-34.127-41.326-38.286-80.487-78.782-120.396-118.486-9.601-9.499-19.155-19.185-28.889-28.336-12.263-11.604-27.616-21.506-39.992-4.889-4.828 6.51-0.256 28.756 7.025 33.819 64.209 45.785 70.74 110.711 62.78 180.496-3.811 34.127 14.872 71.665-14.883 101.868-24.699-21.454-50.507-41.82-73.749-64.844-35.215-34.795-67.444-72.63-103.112-107.024-29.824-28.582-42.291-61.374-41.831-102.434 1.027-78.721-0.358-157.544-1.747-236.458-0.307-18.948 6.933-48.938-19.237-50.466-34.344-1.685-24.031 31.52-24.177 51.442-0.669 87.738 1.488 175.69 0.873 263.458-0.307 38.719 13.238 68.512 40.442 96.026 66.458 67.29 129.897 137.557 196.672 204.508 31.005 31.107 45.775 65.143 42.281 108.749-2.105 24.587-1.542 49.583 0.205 74.262 5.022 69.631 42.271 109.613 110.691 110.906 53.791 1.070 117.218 1.68 180.789 1.68 64.722 0 129.297-0.633 193.718-1.89 58.376-1.135 98.194-42.338 98.654-111.969 1.529-209.499 1.706-419.038 0.348-628.456-0.348-69.59-44.079-116.72-113.237-117.377-130.429-1.263-261.024 1.573-391.423 6.142-30.636 1.15-51.534-7.682-71.644-27.709-22.123-22.082-43.936-47.078-91.311-28.077zM755.414 338.796c0 103.635 0.205 207.188 0 310.751-0.174 68.152-6.408 75.588-71.491 76.923-60.644 1.344-121.567 1.529-182.407-0.205-69.949-1.993-87.882-20.776-88.506-89.709-0.832-90.171-1.665-180.24-0.164-270.36 0.399-25.296 8.709-50.446 13.331-75.691 20.704 11.748 41.646 23.15 62 35.413 44.407 26.682 104.549 24.781 139.754-4.981 35.041-29.599 47.508-82.109 26.374-129.639-9.747-22.019-25.501-42.394-42.291-60.081-38.41-41.121-79.748-79.45-118.187-120.674-9.448-10.004-12.16-26.641-17.964-40.176 12.375-3.709 24.832-10.116 37.248-10.485 58.611-1.109 117.242-1.467 175.659-0.389 57.041 1.099 65.605 9.499 66.386 68.512 1.068 103.522 0.256 207.239 0.256 310.793zM803.087 343.162h0.256c0-26.927-0.123-53.836 0-80.754 0-83.105-0.256-166.098 0.348-249.264 0.266-23.201 4.149-46.615 33.11-50.713 28.787-4.118 48.279 13.167 57.737 37.054 7.179 17.889 7.445 39.405 7.599 59.177 0.43 190.858 0.43 381.748 0.082 572.566-0.082 17.756-0.358 36.376-5.391 53.168-8.298 26.897-29.896 38.944-57.358 36.757-28.94-2.269-35.266-23.457-35.771-47.941-0.262-9.796-0.433-21.61-0.47-33.459-0.144-98.945-0.144-197.742-0.144-296.591z" />
<glyph unicode="&#xe906;" glyph-name="play" d="M513.502 789.152c-259.961 0-470.711-210.75-470.711-470.711s210.75-470.711 470.711-470.711 470.711 210.75 470.711 470.711-210.75 470.711-470.711 470.711zM513.502-109.478c-236.34 0-427.919 191.58-427.919 427.919s191.58 427.919 427.919 427.919c236.34 0 427.919-191.58 427.919-427.919s-191.58-427.919-427.919-427.919zM385.127 104.482l364.844 213.96-364.844 213.96z" />
<glyph unicode="&#xe907;" glyph-name="product" d="M432.369 669.164c0 37.487-30.298 67.27-67.27 67.27h-297.832c-37.487 0-67.27-30.298-67.27-67.27v-297.318c0-37.487 30.298-67.27 67.27-67.27h297.318c37.487 0 67.27 30.298 67.27 67.27v297.318h0.515zM432.369 169.526c0 37.487-30.298 67.782-67.27 67.782h-297.832c-37.487 0-67.27-30.298-67.27-67.782v-297.318c0-37.487 30.298-67.27 67.27-67.27h297.318c37.487 0 67.27 29.783 67.27 67.27v297.318h0.515zM796.957 812.431c-26.19 26.19-69.324 26.19-95.511 0l-210.536-210.536c-26.19-26.19-26.19-69.324 0-95.511l210.536-210.536c26.19-26.19 69.324-26.19 95.511 0l210.536 210.536c26.19 26.19 26.19 69.324 0 95.511l-210.536 210.536zM932.007 169.526c0 37.487-30.298 67.782-67.27 67.782h-297.318c-37.487 0-67.27-30.298-67.27-67.782v-297.318c0-37.487 30.298-67.27 67.27-67.27h297.318c37.487 0 67.27 29.783 67.27 67.27v297.318z" />
<glyph unicode="&#xe908;" glyph-name="up-circle" d="M510.914 821.179c-278.486 0-504.243-225.758-504.243-504.243s225.757-504.243 504.243-504.243c278.485 0 504.243 225.758 504.243 504.243s-225.758 504.243-504.243 504.243zM803.068 151.037c-12.412-12.744-32.524-12.744-44.935 0l-246.175 252.793-246.176-252.793c-12.412-12.744-32.524-12.744-44.935 0-12.477 12.812-12.477 33.397 0 46.209l262.836 269.901c24.426 20.923 38.164 18.809 56.549 0l262.836-269.901c12.478-12.814 12.478-33.398 0.001-46.209z" />
<glyph unicode="&#xe909;" glyph-name="video" d="M962.817 639.381h-28.468c-16.848 0-33.024-6.642-45.060-18.486l-86.943-85.756v40.053c0 53.18-43.134 96.282-96.282 96.282h-609.784c-53.084 0-96.282-43.166-96.282-96.282v-513.502c0-53.148 43.102-96.282 96.282-96.282h609.784c53.148 0 96.282 43.134 96.282 96.282v39.186l86.943-85.756c12.036-11.844 28.211-18.486 45.060-18.486h28.468c35.433 0 64.189 28.724 64.189 64.189v514.369c0 35.465-28.756 64.189-64.189 64.189zM96.282 29.596c-17.715 0-32.093 14.41-32.093 32.093v513.502c0 17.747 14.346 32.093 32.093 32.093h609.784c17.683 0 32.093-14.378 32.093-32.093v-513.502c0-17.683-14.41-32.093-32.093-32.093h-609.784zM962.817 60.824h-32.093l-128.375 128.375v0.867l-32.093 32.093v192.564l160.47 160.47h32.093v-514.369z" />
<glyph unicode="&#xe90a;" glyph-name="building" d="M323.235 37.045h-53.295c-9.248 0-16.792-7.544-16.792-16.792v-53.295c0-9.248 7.544-16.792 16.792-16.792h53.295c9.248 0 16.792 7.544 16.792 16.792v53.295c0 9.248-7.544 16.792-16.792 16.792v0zM323.235 439.070h-53.295c-9.248 0-16.792-7.544-16.792-16.792v-53.295c0-9.248 7.544-16.792 16.792-16.792h53.295c9.248 0 16.792 7.544 16.792 16.792v53.295c0 9.248-7.544 16.792-16.792 16.792v0zM323.235 304.981h-53.295c-9.248 0-16.792-7.544-16.792-16.792v-53.052c0-9.248 7.544-16.792 16.792-16.792h53.295c9.248 0 16.792 7.544 16.792 16.792v53.295c0 9.248-7.544 16.548-16.792 16.548v0zM323.235 171.135h-53.295c-9.248 0-16.792-7.544-16.792-16.792v-53.295c0-9.248 7.544-16.792 16.792-16.792h53.295c9.248 0 16.792 7.544 16.792 16.792v53.295c0 9.248-7.544 16.792-16.792 16.792v0zM323.235 573.16h-53.295c-9.248 0-16.792-7.544-16.792-16.792v-53.295c0-9.248 7.544-16.792 16.792-16.792h53.295c9.248 0 16.792 7.544 16.792 16.792v53.295c0 9.248-7.544 16.792-16.792 16.792v0zM960.335-137.193h-897.254c-9.248 0-16.792 7.544-16.792 16.792v54.512c0 9.248 7.544 16.792 16.792 16.792h50.375v679.631c0 18.982 11.194 36.017 28.716 43.561l297.136 172.053c14.601 6.327 31.393 4.867 44.778-3.894s21.172-23.606 21.172-39.424v-851.684h53.782v775.091c0 17.035 9.004 32.61 23.606 40.884 14.601 8.517 32.853 8.274 47.455-0.243l256.498-149.421c14.601-8.517 23.362-24.092 23.362-40.884v-625.913h50.618c9.248 0 16.792-7.544 16.792-16.792v-54.269c-0.243-9.248-7.787-16.792-17.035-16.792zM759.565 299.812h-53.295c-9.248 0-16.792-7.544-16.792-16.792v-53.052c0-9.248 7.544-16.792 16.792-16.792h53.295c9.248 0 16.792 7.544 16.792 16.792v53.295c0 9.248-7.544 16.548-16.792 16.548v0zM759.565 567.991h-53.295c-9.248 0-16.792-7.544-16.792-16.792v-53.295c0-9.248 7.544-16.792 16.792-16.792h53.295c9.248 0 16.792 7.544 16.792 16.792v53.295c0 9.248-7.544 16.792-16.792 16.792v0zM759.565 165.965h-53.295c-9.248 0-16.792-7.544-16.792-16.792v-53.295c0-9.248 7.544-16.792 16.792-16.792h53.295c9.248 0 16.792 7.544 16.792 16.792v53.295c0 9.248-7.544 16.792-16.792 16.792v0zM759.565 31.876h-53.295c-9.248 0-16.792-7.544-16.792-16.792v-53.295c0-9.248 7.544-16.792 16.792-16.792h53.295c9.248 0 16.792 7.544 16.792 16.792v53.295c0 9.248-7.544 16.792-16.792 16.792v0zM759.565 433.901h-53.295c-9.248 0-16.792-7.544-16.792-16.792v-53.295c0-9.248 7.544-16.792 16.792-16.792h53.295c9.248 0 16.792 7.544 16.792 16.792v53.295c0 9.248-7.544 16.792-16.792 16.792v0z" />
<glyph unicode="&#xe90b;" glyph-name="cart" d="M1000.989 636.124l-640.58 27.862c-18.283 0.904-33.776-13.505-34.526-31.968-0.801-18.463 13.402-34.059 31.685-34.86l597.224-25.976-117.441-369.779h-522.596l-94.381 518.827c-2.066 11.362-9.814 20.889-20.477 25.099l-154.652 61.303c-17.044 6.741-36.254-1.705-42.943-18.875-6.689-17.224 1.705-36.643 18.746-43.381l137.453-54.485 96.087-527.969c2.893-15.854 16.603-27.399 32.614-27.399h15.934l-36.383-102.025c-3.073-8.546-1.808-18.051 3.356-25.487 5.164-7.41 13.582-11.828 22.595-11.828h25.513c-15.802-17.765-25.513-41.212-25.513-66.905 0-55.312 44.596-100.321 99.391-100.321 54.821 0 99.417 45.009 99.417 100.321 0 25.693-9.708 49.115-25.513 66.905h216.728c-15.776-17.765-25.513-41.212-25.513-66.905 0-55.312 44.622-100.321 99.417-100.321s99.391 45.009 99.391 100.321c0 25.693-9.708 49.115-25.513 66.905h31.089c15.236 0 27.553 12.472 27.553 27.862s-12.343 27.862-27.553 27.862h-529.621l29.825 83.588h499.719c14.409 0 27.139 9.373 31.53 23.241l138.048 434.749c3.15 9.943 1.551 20.786-4.363 29.361-5.914 8.546-15.416 13.868-25.745 14.28zM756.577-27.127c24.351 0 44.156-20.014 44.156-44.569 0-24.609-19.805-44.622-44.156-44.622s-44.182 19.986-44.182 44.622c0 24.532 19.831 44.569 44.182 44.569zM392.092-27.127c24.351 0 44.182-20.014 44.182-44.569 0-24.609-19.831-44.622-44.182-44.622-24.326 0-44.156 19.986-44.156 44.622 0 24.532 19.831 44.569 44.156 44.569z" />
<glyph unicode="&#xe90c;" glyph-name="rank" d="M979.532-146.816h-932.054c-13.344 0-24.124-10.78-24.124-24.124s10.78-24.124 24.124-24.124h932.054c13.344 0 24.124 10.78 24.124 24.124-0.515 13.344-11.291 24.124-24.124 24.124zM100.34-38.008h192.98c12.833 0 23.097 10.265 23.097 23.097s-10.265 23.097-23.097 23.097h-192.98c-16.939 0-30.795 13.859-30.795 30.795v507.601c0 16.939 13.859 30.795 30.795 30.795h192.98c12.833 0 23.097 10.265 23.097 23.097s-10.265 23.097-23.097 23.097h-192.98c-42.086 0-76.987-34.389-76.987-76.987v-507.601c0-42.601 34.389-76.987 76.987-76.987zM417.012-38.008h192.98c42.086 0 76.987 34.389 76.987 76.987v715.979c0 42.086-34.389 76.987-76.987 76.987h-192.98c-42.086 0-76.987-34.389-76.987-76.987v-716.492c0-42.086 34.389-76.475 76.987-76.475zM386.217 754.957c0 16.939 13.859 30.795 30.795 30.795h192.98c16.939 0 30.795-13.859 30.795-30.795v-716.492c0-16.939-13.859-30.795-30.795-30.795h-192.98c-16.939 0-30.795 13.859-30.795 30.795v716.492zM926.666 483.963h-192.98c-12.833 0-23.097-10.265-23.097-23.097s10.265-23.097 23.097-23.097h192.98c16.939 0 30.795-13.859 30.795-30.795v-368.511c0-16.939-13.859-30.795-30.795-30.795h-192.98c-12.833 0-23.097-10.265-23.097-23.097s10.265-23.097 23.097-23.097h192.98c42.086 0 76.987 34.389 76.987 76.987v368.511c0 42.601-34.389 76.987-76.987 76.987zM502.211 662.572v-146.276c0-13.344 7.185-21.045 18.992-21.045 12.318 0 20.018 7.7 20.018 21.045v184.768c0 12.318-7.185 20.018-19.503 20.018-3.594 0-7.7-2.053-17.965-13.344-6.674-7.185-12.318-11.291-16.939-12.318l-6.159-1.541c-14.886-3.079-16.939-12.318-16.939-17.45 0-16.939 15.397-24.636 38.495-13.859zM165.521 388.5c-14.886-13.344-26.177-25.15-34.901-34.901-12.318-15.397-17.965-25.15-17.965-32.848 0-6.159 2.568-20.018 24.124-20.018h107.781c13.344 0 21.556 7.185 21.556 19.503 0 11.806-8.212 18.992-21.556 18.992h-75.448c6.674 7.7 14.886 15.912 23.609 24.636 5.647 5.132 17.965 15.912 36.442 32.336 24.124 20.53 35.927 41.574 35.927 62.616 0 20.018-7.7 36.442-23.097 48.245-13.859 10.265-30.795 15.397-50.813 15.397-21.556 0-40.033-7.185-54.404-21.556-14.371-13.859-21.556-30.283-21.556-47.733 0-13.344 7.7-21.045 20.53-21.045 8.727 0 14.371 6.674 17.45 20.53 2.053 9.753 6.674 16.939 13.344 22.583 7.185 5.647 15.397 8.727 25.15 8.727s17.965-2.053 24.124-6.159c6.674-4.621 9.753-10.78 9.753-18.992 0-11.291-7.7-24.124-22.583-37.468-13.344-11.291-25.662-22.071-37.468-32.848zM847.113 203.217c-8.727-5.132-18.477-7.7-28.742-7.7-21.556 0-33.362 8.212-37.98 25.662-3.594 12.318-9.238 18.477-16.939 18.477-13.344 0-20.53-8.212-20.53-22.071 0-19.503 8.727-34.901 25.15-46.192 14.371-9.753 31.309-14.371 50.298-14.371 21.045 0 39.521 5.647 55.43 16.424 18.477 12.318 27.715 29.768 27.715 50.813 0 24.124-10.265 42.086-29.768 53.377 17.965 10.78 27.203 25.662 27.203 43.627 0 20.53-8.727 36.954-26.689 48.245-14.371 8.727-31.821 13.344-52.866 13.344-16.424 0-31.821-4.621-45.68-13.859-15.912-10.78-24.124-25.15-24.124-42.086 0-13.344 7.7-21.045 20.53-21.045 7.185 0 13.344 5.647 16.939 16.424 5.132 14.886 15.397 22.071 31.821 22.071 10.265 0 18.992-1.541 26.689-5.132 11.291-5.132 12.318-11.806 12.318-16.424 0-6.159-1.541-15.397-16.939-21.045-7.185-2.568-18.992-4.621-35.927-5.647-20.018-1.026-23.097-12.318-23.097-18.992 0-5.647 2.053-19.503 23.609-19.503 27.203 0 38.495-4.621 43.627-8.212 8.212-6.159 11.806-14.371 11.806-25.15 0-8.727-4.621-15.397-13.859-21.045z" />
<glyph unicode="&#xe90e;" glyph-name="fund" d="M699.377 563.327c5.858 11.189 8.656 18.444 8.656 22.256-1.91 14.881-10.565 23.119-25.843 24.962-15.404 0-26.861-6.516-34.502-19.429l-132.399-191.702-132.401 191.824c-7.637 12.912-19.225 19.428-34.502 19.428-15.405-1.845-23.933-10.206-25.843-24.961 1.91-7.499 4.712-14.88 8.656-22.257 1.91-1.846 2.929-3.69 2.929-5.532l118.014-175.103h-69.129c-21.133 0-31.7-8.361-31.7-24.961 1.91-13.035 12.476-20.412 31.7-22.258h100.701v-49.924h-100.701c-21.133 0-31.7-8.361-31.7-24.961 1.91-12.913 12.476-20.412 31.7-22.257h100.701v-111.161c0-18.444 10.439-27.789 31.7-27.789 21.005 0 31.573 9.345 31.573 27.789v110.914h100.701c19.097 1.846 29.663 9.345 31.7 22.258 0 16.722-10.566 24.961-31.7 24.961h-100.701v49.924h100.701c19.097 1.846 29.663 9.223 31.7 22.258 0 16.722-10.566 24.961-31.7 24.961h-69.001l118.015 175.103c-0.127 1.967 0.765 3.812 2.675 5.658zM910.839 216.443l-74.477-7.748c-7.894-0.738-14.767-5.658-17.951-12.664-3.182-6.887-2.291-15.125 2.291-21.273l7.383-9.714-326.419-234.863-87.717 105.382c-8.912 10.697-25.208 12.787-36.666 4.548-36.792-26.438-91.407-65.295-100.319-70.827-11.457-5.781-17.061-18.813-12.859-30.987 4.711-13.525 19.731-20.657 33.736-16.232 4.582 1.475 7.767 2.584 90.644 61.974l87.716-105.381c5.219-6.271 12.986-9.59 20.75-9.59 5.474 0 11.077 1.6 15.915 5.165l346.789 249.372 5.346-7.131c4.202-5.533 10.95-8.733 17.952-8.733 0.764 0 1.526 0 2.29 0.123 7.894 0.861 14.767 5.658 18.079 12.664l30.301 66.279c3.056 7.010 2.291 15.125-2.418 21.397-4.711 5.78-12.476 9.099-20.37 8.238zM515.29 766.466c-247.489 0-448.763-194.408-448.763-433.451 0-115.711 46.723-224.534 131.381-306.429 5.22-5.042 11.968-7.5 18.841-7.5 7.303 0.001 13.941 2.858 18.852 7.512 10.428 10.071 10.428 26.303-0.012 36.385-74.73 72.057-115.85 168.093-115.85 270.030 0 210.64 177.341 381.93 395.42 381.93s395.421-171.29 395.421-381.929c0-14.264 11.968-25.7 26.734-25.7s26.608 11.558 26.608 25.7c0 239.043-201.275 433.451-448.636 433.451z" />
<glyph unicode="&#xe90f;" glyph-name="radar" d="M513.502 789.152c-261.031 0-470.711-209.681-470.711-470.711s209.681-470.711 470.711-470.711c261.031 0 470.711 209.681 470.711 470.711s-209.681 470.711-470.711 470.711zM492.108-107.338c-218.239 10.697-393.685 186.145-406.523 404.384h87.725c6.418-19.257 23.536-36.373 44.932-40.653 27.814-128.375 136.934-226.796 271.728-235.356v-128.375zM492.108 61.689c-113.4 8.557-203.261 92.003-228.937 198.982 14.978 6.418 25.675 21.396 32.093 36.373h113.4c8.557-42.793 40.653-74.886 83.443-83.443v-151.911zM492.108 423.282c-42.793-8.557-74.886-40.653-83.443-83.443h-113.4c-6.418 14.978-17.118 27.814-32.093 36.373 23.536 106.979 115.539 188.285 228.937 198.982v-151.911zM492.108 617.986c-134.795-8.557-243.914-106.979-271.728-235.356-21.396-4.279-38.514-21.396-44.932-40.653h-89.864c12.839 216.1 188.285 391.546 406.523 402.244v-126.236zM534.898 744.221c218.239-10.697 393.685-186.145 406.523-404.384h-128.375c-4.279 53.489-21.396 100.561-49.211 143.353 4.279 8.557 6.418 17.118 6.418 27.814 0 36.373-27.814 64.189-64.189 64.189-10.697 0-19.257-2.139-27.814-6.418-40.653 27.814-89.864 44.932-143.353 49.211v126.236zM534.898 573.054c40.653-4.279 79.164-17.118 113.4-36.373-4.279-8.557-6.418-17.118-6.418-25.675 0-36.373 27.814-64.189 64.189-64.189 8.557 0 17.118 2.139 25.675 6.418 21.396-34.232 34.232-70.607 36.373-113.4h-151.911c-8.557 42.793-40.653 74.886-83.443 83.443v149.771zM534.898 213.601c42.793 8.557 74.886 40.653 83.443 83.443h151.911c-10.697-124.096-109.119-224.657-235.356-235.356v151.911zM534.898-107.338v128.375c147.632 10.697 267.45 128.375 278.147 276.008h128.375c-12.839-218.239-188.285-393.685-406.523-404.384z" />
<glyph unicode="&#xe910;" glyph-name="live" d="M884.364-160h-744.727c-76.8 0-139.636 62.836-139.636 139.636v537.6c0 76.8 62.836 139.636 139.636 139.636h202.473l-176.873 176.873 4.655 13.964 25.6-4.655 11.636 13.964 200.145-200.145h221.091l200.145 200.145 11.636-11.636 25.6 4.655 4.655-13.964-11.636-9.309-165.236-165.236h190.836c76.8 0 139.636-62.836 139.636-139.636v-537.6c0-81.455-62.836-144.291-139.636-144.291zM139.636 610.327c-51.2 0-93.091-41.891-93.091-93.091v-537.6c0-51.2 41.891-93.091 93.091-93.091h744.727c51.2 0 93.091 41.891 93.091 93.091v537.6c0 51.2-41.891 93.091-93.091 93.091h-744.727zM418.909 49.455c-13.964 0-25.6 2.327-37.236 9.309-20.945 13.964-34.909 37.236-34.909 65.164v244.364c0 27.927 11.636 53.527 34.909 67.491 20.945 13.964 48.873 13.964 74.473 0l244.364-125.673c25.6-13.964 41.891-37.236 41.891-62.836s-16.291-48.873-41.891-62.836l-244.364-125.673c-11.636-4.655-23.273-9.309-37.236-9.309zM418.909 400.873c-4.655 0-9.309 0-11.636-2.327-6.982-4.655-11.636-13.964-11.636-25.6v-244.364c0-11.636 4.655-20.945 11.636-25.6s18.618-4.655 30.255 2.327l244.364 125.673c11.636 4.655 16.291 13.964 16.291 20.945s-6.982 16.291-16.291 20.945l-244.364 125.673c-6.982 0-11.636 2.327-18.618 2.327z" />
<glyph unicode="&#xe911;" glyph-name="private" d="M581.625 765.694c-34.284 10.957-70.49 10.957-104.773 0l-337.469-107.839v-521.617l361.18-273.629c17.421-13.198 39.93-13.198 57.35 0l361.181 273.629v521.617l-337.468 107.839zM513.555 297.525c-19.021 17.317-34.209 34.136-45.615 50.507v-145.751h-41.337v132.764c-13.318-24.057-33.742-51.005-61.294-80.817v40.405c26.598 36.551 46.082 75.515 58.443 116.889h-57.019v30.306h59.867v46.179l-55.591 0.004v30.306h86.952c22.806 0 43.235 2.887 61.294 8.661v-31.752c-20.912-4.827-38.018-7.215-51.315-7.215v-46.179h52.741v-30.306h-52.741c11.403-26.944 26.594-51.952 45.615-75.040v-38.962zM650.404 212.384l-2.852 24.533c-33.273-5.773-65.57-8.658-96.93-8.658h-35.64v31.748c25.658 80.817 42.764 169.787 51.315 266.97h47.039c-12.361-103.9-32.317-193.373-59.867-268.413 28.509 0 58.911 2.392 91.228 7.215-3.808 33.664-9.979 71.183-18.531 112.561h34.213c14.251-54.836 25.17-110.166 32.784-165.955h-42.762z" />
<glyph unicode="&#xe913;" glyph-name="license" d="M854.86 44.969l59.364 31.72 27.616-53.461 5.068-20.851h-31.262l-29.251-36.815zM628.798 65.114l-38.088-75.947 38.088-1.026 21.031-28.539 30.791 57.185 4.808 17.027zM505.090 214.449h-265.091c-9.762 0-17.672-7.912-17.672-17.668 0-9.768 7.913-17.675 17.672-17.675h265.091c9.762 0 17.672 7.912 17.672 17.675 0 9.761-7.914 17.668-17.672 17.668zM239.999 391.175h494.835c9.762 0 17.672 7.918 17.672 17.675 0 9.762-7.913 17.668-17.672 17.668h-494.835c-9.762 0-17.672-7.91-17.672-17.668 0.001-9.761 7.914-17.675 17.672-17.675zM239.999 497.212h494.835c9.762 0 17.672 7.918 17.672 17.675 0 9.762-7.913 17.668-17.672 17.668h-494.835c-9.762 0-17.672-7.91-17.672-17.668 0.001-9.761 7.914-17.675 17.672-17.675zM922.069 88.729c15.768 26.446 24.838 57.349 24.838 90.375 0 49.433-20.305 94.118-53.019 126.191v315.629c0 19.519-15.822 35.345-35.345 35.345h-759.926c-19.521 0-35.345-15.824-35.345-35.345v-530.186c0-19.519 15.822-35.345 35.345-35.345h510.133l-33.339-85.96 54.733 13.228 25.162-50.973 34.841 89.83c24.028-12.232 51.22-19.141 80.031-19.141 30.135 0 58.507 7.55 83.333 20.853l30.264-73.873 31.651 47.265 48.967-11.201-42.326 103.305zM116.291 90.737c-9.762 0-17.672 7.918-17.672 17.675v494.833c0 9.761 7.913 17.675 17.672 17.675h724.58c9.762 0 17.672-7.918 17.672-17.675v-271.065c-25.993 15.038-56.174 23.648-88.363 23.648-97.602 0-176.726-79.122-176.726-176.726 0-32.191 8.611-62.372 23.65-88.367h-500.814zM654.427-28.805l-14.717 31.388-39.313-10.678 32.156 70.474 44.587-33.133-22.712-58.048zM770.181 37.723c-78.083 0-141.382 63.297-141.382 141.382s63.299 141.382 141.382 141.382 141.382-63.297 141.382-141.382-63.299-141.382-141.382-141.382zM905.865 15.391l-18.102-34.436-18.535 51.435 45.219 40.666 28.051-67.419-36.636 9.753zM540.436 320.485h-300.436c-9.762 0-17.672-7.912-17.672-17.668 0-9.769 7.913-17.675 17.672-17.675h300.436c9.762 0 17.672 7.91 17.672 17.675 0 9.76-7.913 17.668-17.672 17.668zM818.334 163.882c19.191-64.929 2.631-77.459-49.684-37.572-53.841-40.869-69.933-28.653-48.279 36.66-52.466 39.672-45.851 59.741 19.845 60.226 21.416 65.392 41.599 65.581 60.544 0.565 65.701 0.745 71.561-19.216 17.574-59.876z" />
<glyph unicode="&#xe914;" glyph-name="image" d="M962.701 703.568c0.040-0.034 0.082-0.076 0.116-0.116v-770.024c-0.034-0.040-0.076-0.082-0.116-0.116h-898.399c-0.040 0.034-0.082 0.076-0.114 0.116v770.026c0.034 0.040 0.076 0.082 0.114 0.114h898.399zM962.817 767.757h-898.631c-35.302 0-64.189-28.884-64.189-64.189v-770.254c0-35.302 28.884-64.189 64.189-64.189h898.631c35.302 0 64.189 28.884 64.189 64.189v770.254c0 35.302-28.884 64.189-64.189 64.189v0zM834.442 543.1c0-53.176-43.106-96.282-96.282-96.282s-96.282 43.106-96.282 96.282 43.106 96.282 96.282 96.282 96.282-43.106 96.282-96.282zM898.631-2.498h-770.254v128.375l224.657 385.127 256.751-320.939h64.189l224.657 192.564z" />
<glyph unicode="&#xe915;" glyph-name="course" d="M441.88 240.933c-64.468 21.814-119.064 38.876-167.934 57.521-8.53 3.29-17.67-3.047-17.67-12.187v-194.623c0-3.657 1.585-7.19 4.265-9.627 19.742-17.914 108.219-89.939 256.166-89.939 137.466 0 223.018 72.023 242.15 89.939 2.682 2.437 4.143 5.85 4.143 9.505v209.735c0 9.383-9.627 15.72-18.28 11.944-61.908-26.932-118.333-54.841-161.108-72.268-40.46-21.206-97.129-15.72-141.731 0zM633.577 234.962c2.925 2.925 6.704 4.508 10.847 4.508s7.922-1.585 10.847-4.508c2.925-2.925 4.508-6.704 4.508-10.847s-1.585-7.922-4.508-10.847c-2.925-2.925-6.704-4.508-10.847-4.508-1.218 0-2.437 0.122-3.657 0.487l-71.537-85.428c1.707-5.483 0.243-11.334-3.779-15.355-2.925-2.925-6.704-4.508-10.847-4.508s-7.922 1.585-10.847 4.508c-3.047 3.047-4.632 7.312-4.508 11.698-0.975 0-1.828 0.243-2.682 0.732l-59.959 29.979c-0.853 0.365-1.585 0.975-2.193 1.707-2.803-2.315-6.215-3.533-9.872-3.533-1.585 0-3.29 0.243-4.754 0.732l-70.318-71.048c1.585-5.362 0.122-11.212-3.9-15.234-2.925-2.925-6.704-4.508-10.847-4.508s-7.922 1.585-10.847 4.508c-5.972 5.972-5.972 15.72 0 21.692 2.925 2.925 6.704 4.508 10.847 4.508 1.95 0 3.9-0.365 5.605-1.097l69.83 70.44c-2.072 5.605-0.61 11.822 3.533 16.087 2.925 2.925 6.704 4.508 10.847 4.508s7.922-1.585 10.847-4.508c3.047-3.047 4.632-7.312 4.508-11.698 0.975 0 1.828-0.243 2.682-0.732l59.959-29.979c0.853-0.365 1.585-0.975 2.193-1.707 2.803 2.315 6.215 3.533 9.872 3.533 1.828 0 3.657-0.365 5.362-0.975l70.562 84.21c-2.682 5.85-1.462 12.795 3.047 17.184zM919.478 446.401c22.302 13.894 76.045 25.227-3.9 59.715-91.889 37.536-266.89 106.147-347.688 139.173-45.334 22.545-71.293 11.698-120.649-8.044-83.357-31.197-230.817-88.475-325.995-124.183-72.877-27.054-68.49-47.284-1.097-79.213 101.029-47.773 294.675-121.257 337.329-137.101 42.776-15.965 73.73-15.965 116.749 3.168 43.019 19.255 95.665 43.873 289.801 123.086v-112.241c0-3.412-1.218-6.704-3.533-9.262l-23.642-26.324c-4.997-5.605-4.632-14.015 0.732-19.255l41.312-39.119c5.118-4.875 13.162-5.118 18.524-0.365l45.823 39.729c5.729 4.997 6.337 13.77 1.34 19.499l-21.692 24.86c-2.193 2.558-3.412 5.729-3.412 9.019v136.858z" />
<glyph unicode="&#xe916;" glyph-name="newspaper" d="M968.33 510.371v-512.483h-56.918v654.843c0 31.49-25.525 56.945-56.945 56.945h-797.22c-31.448 0-56.945-25.456-56.945-56.945v-654.844c0-31.448 25.498-56.944 56.945-56.944h911.081c8.202 0 15.681 1.223 22.3 3.53 15.043 5.198 25.858 16.071 31.113 31.029 2.306 6.644 3.587 14.18 3.587 22.383v512.484h-57.001zM854.467-2.115h-797.22v654.844h797.22v-654.844zM142.665 567.342h626.359v-56.973h-626.359v56.973zM541.276 424.981h227.748v-56.945h-227.748v56.945zM541.276 339.552h227.748v-56.945h-227.748v56.945zM541.276 254.134h227.748v-56.944h-227.748v56.944zM455.859 424.981h-313.193v-227.79h313.194v227.79zM398.914 254.134h-199.304v113.902h199.304v-113.902z" />
<glyph unicode="&#xe917;" glyph-name="computer-data" d="M897.752 709.211h-769.501c-35.416 0-64.126-28.746-64.126-64.209v-513.67c0-35.466 28.71-64.209 64.126-64.209h288.564v-63.208h-64.129c-17.707 0-32.058-14.374-32.058-32.103 0-17.733 14.353-32.103 32.058-32.103h320.632c17.709 0 32.060 14.374 32.060 32.103 0 17.733-14.353 32.103-32.060 32.103h-64.13v63.208h288.564c35.416 0 64.127 28.746 64.127 64.209v513.669c0 35.466-28.71 64.21-64.127 64.21zM877.714 130.331h-729.425c-11.068 0-20.040 8.984-20.040 20.059v473.554c0 11.079 8.975 20.059 20.040 20.059h729.424c11.066 0 20.038-8.984 20.038-20.059v-473.554h0.001c0-11.078-8.975-20.059-20.038-20.059zM276.54 324.961h-40.078c-6.638 0-12.024-5.382-12.024-12.023v-104.206c0-6.633 5.383-12.023 12.024-12.023h40.078c6.638 0 12.024 5.382 12.024 12.023v104.206c0 6.633-5.383 12.023-12.024 12.023zM404.79 389.085h-40.078c-6.638 0-12.024-5.379-12.024-12.016v-168.344c0-6.631 5.383-12.016 12.024-12.016h40.078c6.638 0 12.024 5.379 12.024 12.016v168.344c0 6.631-5.383 12.016-12.024 12.016zM533.041 581.461h-40.078c-6.638 0-12.024-5.38-12.024-12.017v-360.718c0-6.632 5.383-12.017 12.024-12.017h40.078c6.638 0 12.024 5.379 12.024 12.017v360.718c0 6.632-5.383 12.017-12.024 12.017zM789.541 517.335h-40.078c-6.638 0-12.024-5.386-12.024-12.033v-296.561c0-6.651 5.383-12.033 12.024-12.033h40.078c6.638 0 12.024 5.386 12.024 12.033v296.561c0 6.651-5.383 12.033-12.024 12.033zM661.291 425.156h-40.078c-6.638 0-12.024-5.381-12.024-12.021v-204.405c0-6.64 5.383-12.021 12.024-12.021h40.078c6.638 0 12.024 5.381 12.024 12.021v204.405c0 6.64-5.383 12.021-12.024 12.021z" />
<glyph unicode="&#xe918;" glyph-name="earth" d="M513.001-188.041c-283.291 0-512.948 229.675-512.948 513.001s229.657 513.001 512.948 513.001 512.948-229.675 512.948-513.001c0-283.326-229.657-513.001-512.948-513.001zM973.414 408.914c-73.958 9.304-146.942-29.115-142.857-113.635 4.069-83.9 62.725-47.832 101.27-72.543 17.212-11.003 20.025-38.208 15.813-71.57 21.528 53.793 33.68 112.326 33.68 173.796 0.018 28.709-2.954 56.675-7.908 83.953zM519.777-100.445c9.604 20.943 23.138 40.313 40.154 55.526 10.26 9.163 41.356 31.928 47.371 38.845 20.466 23.58 27.895 48.397 44.842 73.214 27.701 40.562-34.228 24.906-54.323 45.001-19.37 19.387-18.308 50.237-37.749 67.625 6.758-6.032-116.342 50.149-119.401 17.318-1.54-16.786-2.742-25.826-6.899-41.923-12.718-49.405 16.751-56.711 41.959-89.118 20.502-26.34 14.010-63.751 23.030-94.036 2.44-8.084 13.108-46.115 21.016-72.455zM191.502 664.963c49.689 35.591 156.549 18.008 196.562 14.081 12.735-1.255 27.577-13.638 21.492-28.233-2.44-5.979-4.9-11.906-7.394-17.812-21.316-26.34-7.731-22.73 40.809 10.897 3.201 14.717 3.484 17.512 12.064 28.868 6.579 8.667 14.275 12.241 25.19 10.242 3.484-0.638 6.952-1.255 10.436-1.893 10.242-1.858 15.548-12.188 16.362-21.492 2.264-25.455-13.179-32.884 15.725-48.77 17.742-9.765 33.451-20.043 39.41-41.729 12.843-46.771-22.677-68.563-61.064-75.992-68.74-13.302-69.889-118.518-144.98-128.777-89.967-12.312-70.615-38.969-19.864-72.632 25.578-16.965 40.242-38.173 52.148-65.309 11.427-26.073-26.993-48.805-38.51-22.518-18.308 41.764-94.336 64.017-111.636 105.763-1.503 0.318-2.972 0.282-4.51 0.938-122.143 51.634-70.35 210.305-68.387 303.403 0.353 16.504 5.606 29.168 13.814 39.287-83.121-84.59-134.507-200.418-134.507-328.327 0-249.274 194.88-452.487 440.494-466.975-12.807 24.994-17.088 60.92-23.030 80.857-10.719 36.050-10.915 93.416-37.766 118.127-16.292 14.983-31.026 28.851-41.374 48.485-14.522 27.63 5.289 95.609 17.991 117.279 16.751 28.621 75.727 28.656 103.428 26.64 41.606-3.007 87.668-21.439 105.127-63.38 15.389-36.917 19.952-36.564 56.889-47.726 17.053-5.165 22.218-8.19 35.926-19.193 33.078-26.516-20.749-94.725-32.99-115.049-32.849-54.535-99.466-82.271-116.395-145.422 122.037 10.33 230.418 67.502 307.79 153.418 18.203 56.711 41.215 115.049 38.475 171.815 0.23-4.51-68.084 4.953-71.056 6.687-56.269 32.954-44.772 115.969-31.008 168.152 12.329 46.718 74.966 124.868 132.987 107.285 19.105-5.785 28.25-7.429 31.417-6.67-0.459 1.52-0.726 3.113-1.185 4.635-12.17 11.056-63.098 37.111-62.072 38.367-21.139-25.949-31.364-36.156-62.743-43.32-12.788-2.937-29.93 6.385-28.233 21.492 3.555 31.434 18.344 76.63-9.534 97.626-9.287 6.97-10.454 14.134-13.355 25.331-7.235 27.86 35.785 39.695 43.002 11.853 2.937-11.356 27.401-25.79 34.706-38.243 5.82-9.907 4.069-28.798 0.514-47.565 17.671 17.212 35.538 33.451 60.32 21.792-5.803 10.489-12.064 20.678-18.626 30.673-4.777 0.053-9.71 0.796-15.072 2.866-12.206 4.706-17.83 14.487-15.566 27.419 1.84 10.419-76.894 37.502-57.136 69.022-25.843 22.042-54.005 41.392-84.235 57.454 2.672-5.979 3.715-12.488 1.664-19.652-7.058-24.676-26.852-30.194-50.466-31.381-24.535-1.238-38.634-40.26-63.627-49.919-24.888-9.622-47.353 17.053-50.555 38.775-2.831 19.264-1.432 31.734-21.916 37.678-10.968 3.184-21.333 6.829-30.708 13.514-19.458 13.94-18.291 35.324-8.172 54.517 3.537 6.687 8.792 9.801 14.381 10.63-3.325 0.071-6.579 0.494-9.942 0.494-124.62 0-237.582-48.999-321.5-128.387zM352.279 638.11c-63.822 6.015-146.678 6.935-140.434-70.615 5.289-65.856-36.138-169.869 31.593-211.721 12.506 20.943 36.103 37.377 55.367 46.433 37.341 17.565 78.646 15.337 103.781 57.613 13.479 22.677 24.888 43.355 43.657 61.752 10.542 10.313 29.647 11.8 43.002 14.505 46.045 9.322-1.981 40.295-21.457 53.068-1.132 0.743-2.176 1.858-3.254 2.795-10.489-11.958-23.933-21.227-39.801-25.578-22.289-6.12-67.13-5.006-80.751 18.256-12.117 20.696-2.566 37.005 8.296 53.491zM559.842 757.176c2.034-0.549 4.051-1.185 6.12-1.681 7.129-2.423 13.391-4.9 20.096-8.314 12.506-6.315 19.299-21.563 22.042-34.459 0.388-1.822 5.43-27.984 7.199-25.79 5.236 6.438 9.889 13.285 15.054 19.793 8.934 11.268 17.512 18.644 31.097 23.35 4.598 1.611 9.748 1.558 14.913 1.432-1.238 0.779-2.707 1.681-4.563 2.795-11.427 6.811-19.529 14.258-25.508 26.34-10.030 20.325-17.018 10.95-38.349 9.269-16.911-1.291-31.239-10.154-48.097-12.735zM538.438 792.077c-2.493 0.141-4.989 0.282-7.482 0.371 2.017-0.477 4.033-1.026 5.909-2.017 0.388 0.638 1.114 1.026 1.575 1.646z" />
<glyph unicode="&#xe919;" glyph-name="line-chart" d="M983.252-17.040h-940.503c-23.619 0-42.751 19.131-42.751 42.751v598.501c0 23.619 19.131 42.751 42.751 42.751s42.751-19.131 42.751-42.751v-555.752h897.753c23.619 0 42.751-19.131 42.751-42.751s-19.131-42.751-42.751-42.751zM963.31 481.404l-229.483-229.483c-16.352-16.352-42.879-16.352-59.231 0-2.031 2.031-3.057 4.595-4.595 6.926l-199.75 199.75-206.676-206.676c-16.352-16.352-42.879-16.352-59.231 0s-16.352 42.857 0 59.209l232.347 232.347c1.069 1.367 1.583 3.014 2.822 4.275 16.757 16.736 43.905 16.736 60.662 0 0.535-0.557 0.706-1.282 1.218-1.86l203.982-203.982 201.567 201.567c1.069 1.367 1.583 3.014 2.822 4.275 16.757 16.736 43.905 16.736 60.662 0 16.736-16.757 16.736-43.905 0-60.641-2.201-2.201-4.595-4.083-7.118-5.708z" />
<glyph unicode="&#xe91a;" glyph-name="dialogue" d="M300.059 850.987h588.331c37.577 0 71.791-17.435 96.473-45.417 24.784-27.982 40.139-66.625 40.139-109.173v-465.474c0-42.465-15.334-81.159-40.139-109.173-24.743-27.951-58.897-45.315-96.473-45.315h-67.845v81.775h67.845c17.661 0 33.692 8.22 45.407 21.423 11.654 13.182 18.901 31.386 18.901 51.291v465.474c0 19.905-7.247 38.14-18.901 51.311-11.715 13.212-27.747 21.423-45.407 21.423h-588.331c-17.62 0-33.671-8.21-45.325-21.423-11.695-13.171-18.911-31.406-18.911-51.311v-465.474c0-19.926 7.216-38.12 18.911-51.291 11.654-13.202 27.706-21.433 45.325-21.433h324.074l49.108-81.775h-373.182c-37.556 0-71.73 17.364-96.483 45.315-24.713 28.023-40.057 66.625-40.057 109.173v465.484c0 42.548 15.344 81.18 40.057 109.173 24.754 27.982 58.928 45.417 96.483 45.417v0zM536.844 158.21h106.743l10.835-16.769 97.232-150.255-3.167 50.184 72.057 5.73 11.87-191.429-65.068-27.008-160.238 247.784h-70.264v81.764zM135.885-68.202h51.24v-105.811h40.631l93.5 105.811h320.508c-15.919 23.421-41.482 61.623-51.035 79.068h-454.844c-17.056 0-32.605 7.883-43.88 20.654-11.275 12.74-18.327 30.371-18.327 49.682v449.893c0 19.291 7.052 36.849 18.327 49.599 9.348 10.608 21.689 17.906 35.363 20.060v55.626c0 8.128 0.554 16.103 1.671 23.903-33.589-1.958-64.063-18.255-86.438-43.676-23.923-27.029-38.786-64.421-38.786-105.514v-449.893c0-41.123 14.863-78.495 38.796-105.575 23.913-27.080 56.898-43.829 93.275-43.829v0zM374.833 653.459h460.184v-46.238h-460.184v46.238zM374.833 508.76h90.558v-46.248h-90.558v46.248zM500.036 508.76h90.641v-46.248h-90.641v46.248zM631.534 508.76h45.305v-46.248h-45.305v46.248zM722.144 508.76h112.873v-46.248h-112.873v46.248zM374.833 352.15h200.705v-46.258h-200.705v46.258zM611.055 352.15h223.963v-46.258h-223.963v46.258z" />
<glyph unicode="&#xe91b;" glyph-name="coin" d="M958.675 694.797c-10.427 43.972-119.792 78.56-253.172 78.56-131.807 0-240.145-33.774-252.751-77.001-0.671-2.587-1.25-6.149-1.25-10.783v-191.879c-38.966 8.182-84.992 12.924-134.306 12.924-133.39 0-242.749-34.591-253.172-78.567l-0.826-144.311v-324.859c0-2.683 0.47-5.334 1.24-7.951 12.373-41.633 120.778-74.19 252.757-74.19s240.381 32.559 252.753 74.19c0.774 2.62 1.243 5.268 1.243 7.951v40.655c38.954-7.872 84.985-12.421 134.31-12.421 131.975 0 240.384 32.563 252.757 74.187 0.771 2.62 1.24 5.271 1.24 7.951v481.235zM106.338 432.127c7.221 5.271 20.987 13.21 45.54 21.15 44.218 14.271 102.929 22.132 165.317 22.132 48.736 0 95.217-4.798 134.306-13.698 10.954-2.495 21.333-5.309 31.011-8.432 0.599-0.197 1.188-0.384 1.771-0.583 23.44-7.734 36.721-15.429 43.767-20.566 8.081-5.907 10.196-10.083 10.355-10.962-0.161-0.886-2.275-5.062-10.359-10.973-7.046-5.141-20.324-12.831-43.763-20.555-0.591-0.197-1.173-0.392-1.775-0.583-9.679-3.13-20.055-5.944-31.008-8.435-39.089-8.907-85.571-13.702-134.306-13.702-62.39 0-121.1 7.865-165.317 22.14-24.552 7.924-38.318 15.874-45.54 21.138-8.081 5.91-10.199 10.087-10.355 10.973 0.157 0.878 2.275 5.055 10.356 10.961zM538.406 40.107v-80.678c0-0.007 0-0.011-0.004-0.026-1.023-3.239-14.104-17.936-59.913-31.439-43.781-12.916-101.068-20.025-161.294-20.025-60.234 0-117.514 7.11-161.298 20.025-45.817 13.501-58.886 28.2-59.917 31.439 0 0.015 0 0.018-0.004 0.026v96.152c25.345-10.806 58.773-19.83 99.573-26.887 38.266-6.608 79.189-9.96 121.646-9.96 42.45 0 83.377 3.35 121.646 9.96 12.325 2.129 23.962 4.438 34.92 6.931 16.106 3.654 30.724 7.681 43.774 12.071 7.471 2.51 14.435 5.141 20.871 7.887v-15.474zM538.406 196.477v-83.366l-0.004-0.034c-0.982-3.097-13.006-16.666-54.119-29.663-1.88-0.591-3.789-1.18-5.795-1.768-8.506-2.517-17.533-4.805-26.987-6.863-39.178-8.539-85.781-13.162-134.306-13.162-60.234 0-117.514 7.114-161.298 20.025-45.837 13.509-58.904 28.211-59.917 31.442 0 0.004 0 0.015-0.004 0.023v96.144c25.345-10.797 58.773-19.822 99.573-26.879 38.266-6.608 79.189-9.964 121.646-9.964 42.45 0 83.377 3.354 121.646 9.964 4.307 0.744 8.518 1.515 12.66 2.304 26.734 5.089 50.013 11.081 69.6 17.921 6.127 2.144 11.907 4.352 17.305 6.652v-12.775zM538.415 350.165v-85.946l-0.011-0.011c-0.975-3.109-12.994-16.68-54.119-29.675-1.88-0.594-3.789-1.18-5.795-1.775-8.506-2.513-17.533-4.794-26.987-6.863-39.178-8.539-85.781-13.158-134.306-13.158-60.234 0-117.514 7.106-161.298 20.022-45.822 13.505-58.893 28.211-59.917 31.45 0 0 0 0.011-0.004 0.011v96.159c25.345-10.806 58.773-19.833 99.573-26.883 38.266-6.611 79.189-9.964 121.646-9.964 42.45 0 83.377 3.35 121.646 9.964 4.307 0.74 8.518 1.512 12.66 2.301 28.319 5.394 52.766 11.799 73.052 19.151 4.853 1.756 9.482 3.563 13.861 5.427v-10.211zM926.71 69.8c0-0.004-0.004-0.018-0.004-0.027-1.020-3.231-14.096-17.936-59.909-31.435-43.782-12.916-101.068-20.018-161.294-20.018-48.525 0-95.136 4.606-134.317 13.154v109.891c4.15-0.785 8.357-1.551 12.671-2.297 38.259-6.611 79.189-9.964 121.645-9.964 42.447 0 83.377 3.35 121.642 9.964 40.8 7.046 74.22 16.079 99.565 26.879v-96.15zM926.71 226.173c0-0.004-0.004-0.015-0.004-0.023-1.020-3.239-14.096-17.936-59.909-31.45-43.782-12.904-101.068-20.014-161.294-20.014-48.525 0-95.136 4.619-134.317 13.162v109.9c4.15-0.793 8.357-1.567 12.671-2.308 38.259-6.604 79.189-9.957 121.645-9.957 42.447 0 83.377 3.343 121.642 9.957 40.8 7.050 74.22 16.079 99.565 26.879v-96.149zM926.71 379.858c0-0.011-0.004-0.011-0.004-0.023-1.020-3.246-14.096-17.933-59.909-31.446-43.782-12.908-101.064-20.022-161.294-20.022-48.525 0-95.136 4.622-134.31 13.158l-0.826 86.519c-2.345 9.89-9.705 19.297-21.206 27.951 10.895-2.461 22.461-4.76 34.696-6.874 38.263-6.611 79.189-9.964 121.645-9.964 42.447 0 83.377 3.35 121.642 9.964 40.8 7.046 74.224 16.079 99.565 26.887v-96.155zM926.71 530.981c0-0.015 0-0.015-0.004-0.034-1.016-3.231-14.088-17.933-59.909-31.442-43.782-12.901-101.068-20.018-161.294-20.018-60.234 0-117.517 7.11-161.302 20.018-45.814 13.505-58.893 28.203-59.909 31.442 0 0.007-0.007 0.018-0.007 0.034v96.148c25.345-10.809 58.773-19.833 99.573-26.887 38.263-6.604 79.189-9.956 121.645-9.956 42.447 0 83.377 3.35 121.642 9.956 40.8 7.053 74.224 16.079 99.565 26.887v-96.148zM916.359 676.942c-7.221-5.271-20.987-13.217-45.54-21.143-44.214-14.275-102.925-22.136-165.314-22.136-62.393 0-121.103 7.861-165.317 22.136-24.556 7.924-38.315 15.869-45.543 21.143-8.078 5.903-10.196 10.087-10.348 10.962 0.152 0.886 2.271 5.066 10.348 10.969 7.229 5.268 20.984 13.217 45.543 21.143 44.214 14.275 102.92 22.136 165.317 22.136 62.39 0 121.1-7.861 165.314-22.136 24.552-7.924 38.318-15.874 45.54-21.143 8.085-5.903 10.199-10.083 10.352-10.969-0.153-0.875-2.268-5.059-10.352-10.962z" />
<glyph unicode="&#xe91c;" glyph-name="eye" d="M990.903 361.219c-147.241 182.372-306.364 275.366-473.236 275.366-282.599 0-480.469-265.033-488.735-275.882l-12.399-16.532 12.916-16.016c151.374-184.438 312.047-277.948 478.92-277.948 283.115 0 475.303 268.133 483.053 279.499l11.883 16.532-12.399 14.983zM514.568 138.55c-112.626 0-204.587 91.961-204.587 204.587s91.961 204.587 204.587 204.587c112.626 0 204.587-91.961 204.587-204.587 0-113.142-91.444-204.587-204.587-204.587zM85.244 344.687c35.131 42.364 139.491 156.023 281.565 209.236-66.646-46.497-110.042-123.992-110.042-211.303 0-90.411 47.014-170.489 117.792-216.469-98.677 35.131-195.288 107.976-289.315 218.536zM668.524 135.966c63.030 47.014 104.36 122.443 104.36 207.17 0 88.861-44.947 167.389-113.659 213.886 95.061-35.131 187.538-106.427 276.915-212.853-33.581-41.847-131.225-152.407-267.616-208.203zM457.737 343.136c0-31.387 25.444-56.829 56.829-56.829s56.829 25.444 56.829 56.829c0 31.387-25.444 56.829-56.829 56.829s-56.829-25.444-56.829-56.829z" />
<glyph unicode="&#xe91d;" glyph-name="professional" d="M941.631-17.135c-1.027 12.302-3.431 23.673-7.080 34.473-39.9 158.123-164.924 280.232-322.723 315.591l-6.937-0.967 4.069 1.507c101.309 39.661 171.752 136.541 171.752 249.876 0 147.815-119.828 267.643-267.643 267.643s-267.643-119.828-267.643-267.643c0-114.614 72.043-212.401 173.315-250.548l7.269-2.569-5.425 1.959h-0.904l-4.069 1.507c-160.533-36.089-285.384-158.25-324.801-314.405-3.988-12.752-6.393-24.124-7.381-35.899-0.035-4.519-0.563-8.512-0.563-12.506 0-0.022 0-0.049 0-0.075 0-79.904 64.71-144.694 144.584-144.822h569.885c79.966 0.043 144.779 64.856 144.822 144.818 0 4.073 0 8.067-0.528 11.985zM431.662 328.42v0zM453.89 322.091v0zM448.239 323.447v0zM442.663 324.879v0zM436.786 326.762v0zM513.115-151.409v1.431l-1.356-1.356-125.307 115.361 93.962 221.002c-29.688 30.743-49.505 83.94-49.505 83.94v3.24c29.537 24.414 57.341 31.798 81.001 30.969h1.431c23.66 0.754 51.464-6.555 81.001-30.969v-3.24s-19.817-53.122-49.505-83.94l93.962-221.002-125.684-115.436z" />
<glyph unicode="&#xe91e;" glyph-name="wind" horiz-adv-x="1033" d="M874.874 300.979h-852.392c-12.702 0-22.482 9.782-22.482 22.493v14.655c0 12.711 9.78 22.481 22.482 22.481h729.232c-22.483 28.348-33.243 60.609-33.243 96.775 0 43.993 15.646 81.139 45.945 111.439 30.31 30.31 67.446 45.945 110.458 45.945 43.993 0 81.14-15.635 111.439-45.945 30.31-30.3 45.945-67.446 45.945-111.439 0-43.002-15.635-80.148-45.945-110.458-30.299-30.3-67.445-45.946-111.438-45.946v0 0zM874.874 555.138c-53.763 0-96.775-43.012-96.775-97.755 0-53.763 43.012-96.775 96.775-96.775 54.743 0 97.755 43.012 97.755 96.775 0 54.743-43.012 97.755-97.755 97.755v0 0zM501.47 510.174h-478.988c-12.702 0-22.482 10.75-22.482 22.482v14.664c0 12.702 9.78 22.482 22.482 22.482h355.817c-22.482 28.348-34.213 61.58-34.213 97.755 0 43.002 15.645 80.148 45.945 110.458 30.3 30.3 67.446 45.945 110.458 45.945 43.993 0 81.129-15.645 111.439-45.945 30.3-30.31 45.945-67.456 45.945-111.439 0-43.012-15.646-80.158-45.945-110.458-30.31-30.31-67.446-45.945-110.458-45.945v0 0zM569.897 735.975c-38.127 38.127-98.736 38.127-137.835 0-38.127-38.117-38.127-98.726 0-137.825 39.098-38.127 99.707-38.127 137.835 0 38.117 39.098 38.117 99.707 0 137.825v0 0zM22.482 166.088h389.050c43.012 0 80.158-15.644 110.459-45.945 31.281-30.3 46.926-67.445 46.926-111.439 0-43.011-15.645-80.156-46.926-110.458-30.301-30.3-67.446-45.945-111.429-45.945-43.012 0-80.158 15.646-110.468 45.945-30.3 30.301-45.935 67.447-45.935 110.458 0 36.166 11.731 69.41 34.213 97.755h-265.891c-12.702-0.001-22.482 9.771-22.482 22.482v14.664c0 12.702 9.78 22.482 22.482 22.482v0 0zM342.134-59.722c39.098-38.117 99.707-38.117 137.825 0 38.127 38.127 38.127 99.706 0 137.836-38.117 38.117-98.726 38.117-137.825 0-38.127-38.129-38.127-99.708 0-137.836v0z" />
<glyph unicode="&#xe91f;" glyph-name="flag" d="M992.335 628.193c-0.147 109.079-77.287 188.206-186.53 188.785-192.708 1.022-385.427 0.935-578.136 0.034-108.25-0.507-186.55-78.807-186.901-186.121-0.637-195.109-0.677-390.224 0.101-585.333 0.416-104.614 78.002-180.308 182.922-180.562 96.754-0.234 193.512-0.050 290.268-0.051 97.556-0.001 195.191 2.464 292.647-0.671 104.689-3.368 187.499 85.606 186.347 185.786-2.215 192.687-0.456 385.418-0.718 578.132zM336.797 59.955c-2.547-32.837-2.585-32.834-35.275-32.997-47.091-0.234-47.1-0.234-47.101 46.465-0.002 160.63 0.361 321.263-0.395 481.888-0.108 23.036 5.004 32.42 30.54 31.465 53.364-1.994 53.436-0.495 53.448-54.55 0.015-73.523 0.004-147.045 0.004-220.567-0.314 0-0.63 0-0.944-0.001 0-79.108 0.004-158.217-0.010-237.326-0.002-4.794 0.103-9.606-0.266-14.377zM717.633 179.377l-29.349-27.367 7.421-39.337c0.706-4.061-0.993-8.242-4.327-10.641-1.832-1.331-4.076-2.065-6.324-2.065-1.72 0-3.456 0.426-5.020 1.231l-36.858 18.142-37.169-18.176c-1.418-0.749-3.076-1.14-4.811-1.14-2.374-0.001-4.676 0.726-6.483 2.045-3.296 2.347-4.98 6.486-4.298 10.548l7.671 39.394-29.272 27.036c-2.972 2.898-4.073 7.28-2.796 11.152 1.249 3.926 4.574 6.744 8.682 7.358l40.599 7.366 18.191 36.614c1.856 3.721 5.571 6.031 9.695 6.031 4.103 0 7.904-2.376 9.68-6.056l18.185-36.571 40.693-7.153c4.061-0.605 7.356-3.421 8.614-7.355 1.271-3.868 0.202-8.206-2.725-11.058zM777.682 335.234c-0.010-2.838-2.164-5.667-4.145-10.53-11.099 3.425-21.99 5.53-31.794 10.015-66.998 30.648-129.955 18.415-192.545-14.536-28.622-15.069-59.885-25.122-89.966-37.411-1.465-0.6-3.103-1.274-4.618-1.186-27.646 1.62-55.286 3.35-82.927 5.057-2.301 22.455-6.293 44.888-6.588 67.37-0.881 67.119-0.397 134.258-0.214 201.388 0.026 9.253 1.371 18.501 2.256 29.635 16.37-3.219 30.037-6.857 43.94-8.457 36.529-4.208 69.085 8.015 100.209 25.713 39.701 22.576 80.709 40.467 126.765 47.649 47 7.33 87.932-9.531 129.65-24.873 4.89-1.799 10.092-10.841 10.121-16.552 0.484-91.091 0.18-182.186-0.143-273.281z" />
<glyph unicode="&#xe920;" glyph-name="bag" d="M681.264 503.090c34.489 32.076 59.51 75.428 66.926 120.95 9.586 59.209-10.732 114.439-57.219 155.439-26.188 23.327-60.901 37.58-98.945 37.58-4.541 0-9.036-0.203-13.473-0.601-52.064-3.818-104.58-32.337-143.41-78.342-36.78-43.472-55.711-98.34-51.853-150.494 0.972-12.955 11.722-23.099 24.841-23.099 13.755 0 24.907 11.151 24.907 24.907 0 0.637-0.024 1.267-0.071 1.892-2.889 39.228 11.823 81.012 40.221 114.657 30.268 35.755 70.183 57.883 109.555 60.776 28.64 2.050 54.686-6.451 75.308-24.6 42.508-37.564 45.764-80.614 40.94-110.158-8.32-51.25-47.511-101.294-95.325-121.614-4.409-2.028-8.002-5.194-10.493-9.126-28.035-2.149-63.247-3.958-101.956-3.958-58.365 0-106.359 5.306-135.3 9.526l-0.543 0.482c-10.853 8.26-45.22 64.936-57.039 91.949-20.5 46.849-6.451 97.858 32.559 118.659 4.040 2.17 16.28 8.743 43.774 0.784 2.059-0.614 4.425-0.967 6.874-0.967 13.754 0 24.904 11.15 24.904 24.904 0 11.306-7.533 20.851-17.854 23.892-31.71 9.149-58.179 7.581-81.151-4.598-62.224-33.222-85.739-111.725-54.808-182.631 5.668-12.903 24.419-48.416 43.533-76.815-149.53-78.684-206.025-280.91-206.025-393.842 0-225.923 207.231-256.431 410-256.431 202.408 0 434.721 29.182 434.721 256.431 0 118.298-87.185 350.792-253.598 394.444zM500.080-97.922c-259.144 0-360.077 57.883-360.077 206.568 0 109.856 57.219 289.714 184.139 352.72 22.007-3.98 84.291-13.868 167.015-13.868 27.675 0 53.18 0.844 76.031 2.11 15.495-25.324 37.201-72.534 35.453-135.964-7.673-3.742-12.867-11.485-12.867-20.441 0-12.52 10.15-22.67 22.67-22.67 0.093 0 0.186 0.001 0.279 0.002 12.647 0 22.837 10.25 22.837 22.851-0.064 6.846-3.177 12.952-8.045 17.035 0.128 3.552 0.221 7.685 0.221 11.839 0 47.293-12.065 91.768-33.285 130.514l12.347-0.513c17.003-22.911 82.483-119.805 105.093-278.86-5.521-4.082-9.084-10.54-9.165-17.834 0.642-12.118 10.613-21.691 22.821-21.691s22.18 9.572 22.819 21.621c-0.067 8.352-4.618 15.569-11.343 19.414-20.67 147.357-75.539 242.139-101.404 279.943 11.094 1.145 19.475 2.17 24.118 2.714 145.791-29.544 225.319-245.095 225.319-348.923 0-144.766-115.161-206.568-384.978-206.568z" />
<glyph unicode="&#xe921;" glyph-name="fire" d="M827.157 472.269l-0.095 0.177c-14.524 29.51-25.523 55.092-34.722 114.611l-2.341 15.149-14.476-5.041c-42.162-14.68-72.312-42.099-89.613-81.495-15.826-36.039-20.842-82.559-14.942-138.388-80.488 81.434-115.521 213.947-107.056 404.614l0.824 18.547-17.615-5.868c-60.496-20.152-109.357-51.17-145.225-92.192-35.938-41.103-59.329-92.799-69.521-153.651-17.359-103.629 6.698-212.415 19.622-270.859 1.292-5.843 2.538-11.478 3.633-16.616-31.711 21.552-58.893 63.95-80.879 126.2-12.297 34.819-19.528 66.59-22.744 82.43l-3.694 18.195-15.668-9.96c-71.711-45.582-104.372-148.232-104.372-224.317 0-206.26 168.48-374.064 375.569-374.064 100.281 0 194.569 38.885 265.494 109.492 70.98 70.658 110.069 164.619 110.067 264.572 0.001 38.873-5.095 137.934-52.247 218.462zM749.28 304.558c-15.443 54.563-20.937 134.058-2.468 180.627 3.77-9.993 9.047-21.743 14.946-34.878l0.044-0.097c21.013-46.783 52.762-117.463 53.407-196.275-7.127-86.49-41.44-165.015-96.629-221.112-27.689-28.142-59.829-50.066-95.531-65.159-37.064-15.674-77.17-23.622-119.204-23.622-83.555 0-161.132 31.209-218.442 87.877-57.627 56.983-90.632 135.818-92.932 221.982-0.865 32.547 16.55 93.17 27.682 112.608 0.526-1.528 1.065-3.111 1.619-4.732 9.583-28.079 24.066-70.512 54.416-107.564 36.979-45.145 87.56-69.449 150.337-72.238l17.152-0.763-4.206 16.646c-2.008 7.947-4.148 16.242-6.371 24.857l-0.195 0.757c-19.32 74.858-43.364 168.022-41.63 257.612 0.94 48.483 9.683 91.059 25.986 126.546 18.026 39.232 45.974 71.363 83.126 95.587 0.737-118.761 21.816-219.734 61.076-292.347 41.654-77.044 100.464-118.271 174.801-122.538l17.899-1.026-4.881 17.251zM773.447 455.442v0 0 0z" />
<glyph unicode="&#xf007;" glyph-name="user" horiz-adv-x="731" d="M731.429 64.571q0-62.286-35.714-106.857t-86-44.571h-488q-50.286 0-86 44.571t-35.714 106.857q0 48.571 4.857 91.714t18 86.857 33.429 74.857 53.714 50.857 76.857 19.714q74.857-73.143 178.857-73.143t178.857 73.143q43.429 0 76.857-19.714t53.714-50.857 33.429-74.857 18-86.857 4.857-91.714zM585.143 571.429q0-90.857-64.286-155.143t-155.143-64.286-155.143 64.286-64.286 155.143 64.286 155.143 155.143 64.286 155.143-64.286 64.286-155.143z" />
<glyph unicode="&#xf023;" glyph-name="lock" horiz-adv-x="658" d="M182.857 425.143h292.571v109.714q0 60.571-42.857 103.429t-103.429 42.857-103.429-42.857-42.857-103.429v-109.714zM658.286 370.286v-329.143q0-22.857-16-38.857t-38.857-16h-548.571q-22.857 0-38.857 16t-16 38.857v329.143q0 22.857 16 38.857t38.857 16h18.286v109.714q0 105.143 75.429 180.571t180.571 75.429 180.571-75.429 75.429-180.571v-109.714h18.286q22.857 0 38.857-16t16-38.857z" />
<glyph unicode="&#xf040;" glyph-name="pencil" d="M207.429-13.714l52 52-134.286 134.286-52-52v-61.143h73.143v-73.143h61.143zM506.286 516.571q0 12.571-12.571 12.571-5.714 0-9.714-4l-309.714-309.714q-4-4-4-9.714 0-12.571 12.571-12.571 5.714 0 9.714 4l309.714 309.714q4 4 4 9.714zM475.429 626.286l237.714-237.714-475.429-475.429h-237.714v237.714zM865.714 571.429q0-30.286-21.143-51.429l-94.857-94.857-237.714 237.714 94.857 94.286q20.571 21.714 51.429 21.714 30.286 0 52-21.714l134.286-133.714q21.143-22.286 21.143-52z" />
<glyph unicode="&#xf0c0;" glyph-name="group" horiz-adv-x="1097" d="M338.857 352q-92.571-2.857-151.429-73.143h-76.571q-46.857 0-78.857 23.143t-32 67.714q0 201.714 70.857 201.714 3.429 0 24.857-12t55.714-24.286 68-12.286q38.286 0 76 13.143-2.857-21.143-2.857-37.714 0-79.429 46.286-146.286zM950.857-12q0-68.571-41.714-108.286t-110.857-39.714h-499.429q-69.143 0-110.857 39.714t-41.714 108.286q0 30.286 2 59.143t8 62.286 15.143 62 24.571 55.714 35.429 46.286 48.857 30.571 63.714 11.429q5.714 0 24.571-12.286t41.714-27.429 61.143-27.429 77.143-12.286 77.143 12.286 61.143 27.429 41.714 27.429 24.571 12.286q34.857 0 63.714-11.429t48.857-30.571 35.429-46.286 24.571-55.714 15.143-62 8-62.286 2-59.143zM365.714 717.714q0-60.571-42.857-103.429t-103.429-42.857-103.429 42.857-42.857 103.429 42.857 103.429 103.429 42.857 103.429-42.857 42.857-103.429zM768 498.286q0-90.857-64.286-155.143t-155.143-64.286-155.143 64.286-64.286 155.143 64.286 155.143 155.143 64.286 155.143-64.286 64.286-155.143zM1097.143 369.714q0-44.571-32-67.714t-78.857-23.143h-76.571q-58.857 70.286-151.429 73.143 46.286 66.857 46.286 146.286 0 16.571-2.857 37.714 37.714-13.143 76-13.143 33.714 0 68 12.286t55.714 24.286 24.857 12q70.857 0 70.857-201.714zM1024 717.714q0-60.571-42.857-103.429t-103.429-42.857-103.429 42.857-42.857 103.429 42.857 103.429 103.429 42.857 103.429-42.857 42.857-103.429z" />
</font>
</defs>
</svg>
